<?xml version="1.0" encoding="utf-8"?>
<!-- Generator: Adobe Illustrator 19.1.0, SVG Export Plug-In . SVG Version: 6.00 Build 0)  -->
<svg version="1.1" id="svgroot" xmlns="http://www.w3.org/2000/svg" xmlns:xlink="http://www.w3.org/1999/xlink" x="0px" y="0px"
	 viewBox="261 -199.6 1133.9 1190.6" style="enable-background:new 261 -199.6 1133.9 1190.6;" xml:space="preserve">
<g id="Layer_0">
	<path style="fill:#D3D4D5;" d="M297.4,140.3l-1-56.3l62.1-41.2l232.1,0.4l36.6,0.1l32.2,0.1l0.8,6.8l-56.4,28.5l-0.9,74.9
		l-17.3-2.3l-0.3,28.4h17.2l0.9,66l-63.4-0.1l-0.1,44.3l-135,0.4l-0.4-44.3h-21.8l-0.2-23.4l-0.8-82.3L297.4,140.3 M460.6,182.2
		c-0.6,0.7-0.6,1.8-0.6,1.8c0,1.5,0.1,29,0.1,29.8s0.8,1.8,1.8,1.8s6.1,0,6.4,0c0.1,0.1,1.7,1.5,4.4,1.5c0.1,0,0.3,0,0.4,0
		c0.8,0,2.9-0.7,2.9-2.6c0-0.6-0.1-28.6-0.1-30.1c0-0.1,0.1-1.4-0.5-2.1c-0.5-0.6-1.4-0.6-1.7-0.6c-0.1,0-0.1,0-0.1,0l-11.3-0.1
		c0,0-0.1,0-0.2,0C461.9,181.6,461.1,181.6,460.6,182.2 M518.9,69.7v8.2l1.3,1.1h23.7l1.3-1.1l0.1-8.2l-1.3-1.1h-23.7L518.9,69.7
		 M461,163.1c0,1.7,0,12.3,0,12.9c0,0.1,0,1.5,0.7,2.1c0.5,0.4,1.7,0.5,2.3,0.5c0.2,0,0.3,0,0.3,0h8.5c0.1,0,1.2,0,1.9-0.7
		s0.6-1.9,0.6-2c0-0.6,0.1-12,0.1-13.2s-1.7-1.4-1.8-1.4h-11C462.5,161.3,461,161.4,461,163.1 M471.8,69.6l-4.2,6.4l8,5l4.3-1.5
		l7.2-3.5l-4.2-6.4H471.8 M557.8,144.9l4.9-20.1l-1.4-0.4l-8.7,19.2L557.8,144.9 M585.3,68l-8,6.5l7.9,6.5l8-6.5L585.3,68
		 M548.4,69.7l-0.1,8.2h15.9l4-4.7l-5.9-3.4L548.4,69.7 M502.6,69.7l-6.4,3.8l3.5,4.4h16v-8.2L502.6,69.7 M550.6,178l3.9-16.7
		l-4.9-0.4L549,178L550.6,178 M555.4,157.6l1.4-7.5l-6.2-1.5l-1.4,7.5L555.4,157.6"/>
	<polygon style="fill:#D3D5D5;" points="353.6,246.1 353.4,222 385.3,221.9 385.5,246 	"/>
	<polygon style="fill:#D3D5D5;" points="297.8,158.1 297.4,138.7 387.5,138.6 387.6,157.9 	"/>
	<polygon style="fill:#AFAFAF;" points="384.5,298 384,245.7 408.1,245.6 408.4,289.1 456,288.9 456,279.7 465.6,279.6 465.6,288.8 
		543.1,288.4 543.4,243.3 602.9,243 602.6,271 623.6,270.9 623.3,296.6 	"/>
	<polygon style="fill:#AFAFAF;" points="426.6,43.1 426.6,19.3 446.3,19.4 446.4,43.1 	"/>
</g>
<g id="Layer_1">
	<polygon style="fill:#D3D4D5;" points="582.9,191.2 583.3,150.3 601,150.2 600.6,191.2 	"/>
	<polygon style="fill:#ACC280;" points="487.8,100 483.1,95.5 486.6,92.4 489.1,90.4 491.3,88.5 499.2,88.6 499.1,100 	"/>
	<polygon style="fill:#ACC280;" points="500.5,102.3 500.5,88.8 500.5,88.6 511.5,88.6 511.4,102.3 	"/>
	<polygon style="fill:#ACC280;" points="482.2,108.2 482.2,96.2 487.2,101.4 499.1,101.4 499.1,108.2 	"/>
	<polygon style="fill:#ACC280;" points="512.4,102.2 512.5,88.6 523.4,88.5 523.3,102.2 	"/>
	<polygon style="fill:#ACC280;" points="482.2,117.6 482.2,109.6 500.5,109.6 500.5,103.5 516.4,103.5 516.4,117.6 	"/>
	<polygon style="fill:#ACC280;" points="482.2,128.2 482.2,118.7 494,118.7 494,128.2 	"/>
	<polygon style="fill:#ACC280;" points="396.5,107.1 396.5,102 418,88.8 421.6,88.8 421.6,107 	"/>
	<polygon style="fill:#ACC280;" points="396.5,113.6 396.5,107.7 421.6,107.7 421.6,113.6 	"/>
	<polygon style="fill:#ACC280;" points="422.6,110.3 422.5,88.8 430.6,88.8 430.6,110.3 	"/>
	<polygon style="fill:#ACC280;" points="431.6,110.4 431.5,88.9 439.6,88.9 439.6,110.4 	"/>
	<polygon style="fill:#ACC280;" points="440.5,110.4 440.5,88.9 448.6,88.9 448.6,110.4 	"/>
	<polygon style="fill:#ACC280;" points="396.6,126.2 396.6,120.3 421.6,120.2 421.6,126.2 	"/>
	<polygon style="fill:#ACC280;" points="396.6,132.5 396.6,126.8 421.6,126.8 421.6,132.5 	"/>
	<polygon style="fill:#ACC280;" points="482.5,145.4 482.2,129.3 493.9,129.3 493.9,145.4 	"/>
	<polygon style="fill:#ACC280;" points="494.8,145.4 494.8,118.8 503.4,118.8 503.3,145.4 	"/>
	<polygon style="fill:#ACC280;" points="504.2,145.4 504.3,118.8 516.3,118.8 516.2,145.3 	"/>
	<polygon style="fill:#ACC280;" points="534.4,102.1 524.3,102.1 524.4,88.6 534.5,88.6 	"/>
	<polygon style="fill:#ACC280;" points="546.8,102.3 535.3,102.2 535.3,88.6 546.9,88.6 	"/>
	<polygon style="fill:#ACC280;" points="547.8,100 547.9,89.4 547.9,88.6 555.1,88.6 555,100 	"/>
	<polygon style="fill:#ACC280;" points="560.8,100 555.8,100 555.9,88.6 565.5,88.6 565.5,95.9 560.8,95.9 	"/>
	<polygon style="fill:#ACC280;" points="566.2,95.9 566.3,88.6 577.9,88.6 580.1,91.2 577.1,95.8 	"/>
	<polygon style="fill:#ACC280;" points="570.6,103.1 561.5,101.8 561.5,96.7 575.8,96.7 573.3,100.4 	"/>
	<polygon style="fill:#ACC280;" points="562.8,110.7 547.6,103.5 548.2,101.1 560.6,101.1 560.6,102.6 569.9,103.9 	"/>
	<polygon style="fill:#ACC280;" points="557.8,119.4 539.6,112.5 517.6,111.7 517.5,103.5 545,103.5 562.4,111.6 	"/>
	<polygon style="fill:#ACC280;" points="551.2,131 534.4,125.1 517.6,124.3 517.3,112.6 539.4,113.5 557.5,120.3 551.5,130.4 	"/>
	<polygon style="fill:#ACC280;" points="547.6,140.5 517.4,134.1 517.4,125.4 534.3,126.2 551.1,132.1 	"/>
	<polygon style="fill:#ACC280;" points="517.4,145.4 517.5,135.3 530.6,137.4 530.6,140.8 533.8,141.8 533.8,145 	"/>
	<polygon style="fill:#ACC280;" points="534.6,145.3 534.6,141.5 531.4,140.2 531.4,138 547.3,141.3 546.2,145.3 	"/>
	<polygon style="fill:#ACC280;" points="441.1,64.7 441.1,57.3 449.3,57.3 449.3,64.7 	"/>
	<polygon style="fill:#ACC280;" points="450,64.8 450,56.7 441.2,56.7 441,42.9 457.2,42.9 457.3,64.7 	"/>
	<polygon style="fill:#ACC280;" points="470.6,65.3 467,62 466.9,42.9 476.4,42.9 476.4,65.3 	"/>
	<polygon style="fill:#ACC280;" points="463.1,69.5 458.2,64.9 458.2,42.9 465.8,42.9 466,62.5 469.3,65.2 467.3,69.3 	"/>
	<polygon style="fill:#ACC280;" points="477.6,65.3 477.6,42.9 487.6,42.9 487.6,65.3 	"/>
	<polygon style="fill:#ACC280;" points="488.9,65.3 488.9,42.9 510.8,43 510.9,48.3 510.8,65.3 	"/>
	<polygon style="fill:#ACC280;" points="512,65.4 512,43 539.2,43.1 539.1,65.4 	"/>
	<polygon style="fill:#ACC280;" points="539.9,65.3 540.1,43 551.6,43 551.6,65.4 	"/>
	<polygon style="fill:#ACC280;" points="552.6,65.4 552.6,58.6 563.5,58.6 563.5,65.4 	"/>
	<polygon style="fill:#ACC280;" points="564.3,65.4 564.3,58.1 552.5,58.1 552.6,42.9 579.1,43 578.8,63.2 575.1,65.4 	"/>
	<polygon style="fill:#ACC280;" points="580,61.1 580.2,43.1 592,43.1 591.8,51 	"/>
	<polygon style="fill:#ACC280;" points="662.3,78.8 601.6,78.7 601.9,69.4 613.6,50.3 613.6,43.9 662.9,43.8 	"/>
	<polygon style="fill:#ACC280;" points="589.2,109.9 581.3,103.7 587.4,98.1 593.4,102.3 603.3,102.3 603.2,109.9 	"/>
	<polygon style="fill:#ACC280;" points="593.8,101.2 588.2,97.4 601.6,80 662.1,80 661.8,101.2 	"/>
	<polygon style="fill:#ACC280;" points="584,118.7 570.2,118.7 571,114.8 575.4,110.7 584,113.7 	"/>
	<polygon style="fill:#ACC280;" points="566.6,135.3 568.5,127.4 585.1,127.5 585,135.2 	"/>
	<polygon style="fill:#ACC280;" points="585.8,135.3 585.9,126.3 569,126.3 570,119.5 585.1,119.5 585.2,114.5 589.8,110.8 
		603.5,110.9 603.2,135.2 	"/>
	<polygon style="fill:#ACC280;" points="603,156.9 564.1,148.1 566.4,136.2 603.2,136.1 	"/>
	<polygon style="fill:#ACC280;" points="396.6,139 396.6,133.3 421.8,133.3 421.8,139 	"/>
	<polygon style="fill:#ACC280;" points="396.8,145.5 396.8,139.8 421.8,139.8 421.8,145.5 	"/>
	<polygon style="fill:#ACC280;" points="422.6,145.4 422.5,124 430.6,124 430.8,145.4 	"/>
	<polygon style="fill:#ACC280;" points="431.6,145.4 431.5,124 439.6,124 439.8,145.4 	"/>
	<polyline style="fill:#ACC280;" points="448.5,111.1 448.5,127.7 448.6,145.5 440.6,145.4 440.6,111.6 	"/>
	<polygon style="fill:#ACC280;" points="449.4,98.4 449.4,88.9 461.4,88.9 461.4,98.4 	"/>
	<polygon style="fill:#ACC280;" points="462.1,98.5 462.1,89 474,89 474,98.5 	"/>
	<polygon style="fill:#ACC280;" points="449.5,105.2 449.5,99.5 474.1,99.5 474.1,105.2 	"/>
	<polygon style="fill:#ACC280;" points="449.6,111.6 449.6,105.9 473.9,105.9 473.9,111.6 	"/>
	<polygon style="fill:#ACC280;" points="449.5,118.8 449.5,112.1 474,112.1 474,118.8 	"/>
	<polygon style="fill:#ACC280;" points="449.5,126 449.5,119.3 474,119.3 474,126 	"/>
	<polygon style="fill:#ACC280;" points="449.4,145.4 449.3,126.8 458.9,126.8 458.9,145.4 	"/>
	<polygon style="fill:#ACC280;" points="460.1,134.5 460,126.8 474,126.8 474,134.5 	"/>
	<polygon style="fill:#ACC280;" points="460,145.5 460,135.5 474.1,135.4 474.1,145.5 	"/>
	<polygon style="fill:#ACC280;" points="601.5,170.4 561.6,160.7 564,148.9 602.6,157.6 	"/>
	<polyline style="fill:#ACC280;" points="439.3,123.1 422.6,123 422.6,111.1 439.4,111.3 	"/>
	<polygon style="fill:#66AA58;" points="383.3,209.4 383.2,198.1 392.2,198.1 392.2,209.4 	"/>
	<polygon style="fill:#66AA58;" points="392.3,210.2 392.4,222.4 383.3,222.4 383.2,210.2 	"/>
	<polygon style="fill:#66AA58;" points="391.9,167.8 392,178.9 383.1,178.9 383,162.2 386.9,162.2 	"/>
	<polygon style="fill:#66AA58;" points="392,180.1 392.1,190.4 383.1,190.4 383,180.1 	"/>
	<polygon style="fill:#66AA58;" points="428.1,163.6 428.2,170.7 415.6,170.7 415.6,163.7 	"/>
	<polygon style="fill:#66AA58;" points="441.5,170.6 429,170.7 428.9,163.6 441.5,163.7 	"/>
	<polygon style="fill:#66AA58;" points="454,164.5 454,170.6 442.5,170.6 442.5,163.7 453.1,163.7 	"/>
	<polygon style="fill:#66AA58;" points="407.6,170.7 407.8,185.1 399.1,185.1 399,167.8 404,163.7 414.9,163.7 414.9,170.7 	"/>
	<polygon style="fill:#66AA58;" points="408.9,185 408.8,171.8 453.9,171.7 453.9,184.9 	"/>
	<polygon style="fill:#66AA58;" points="429,186.1 429.1,201.5 399.3,201.6 399.2,195.5 399.2,192.6 399.1,186.2 	"/>
	<polygon style="fill:#66AA58;" points="408.1,202.5 408.3,227.6 399.4,224.2 399.3,202.6 	"/>
	<polygon style="fill:#66AA58;" points="454.1,186.1 454.1,192.4 430,192.5 430,186.2 	"/>
	<polygon style="fill:#66AA58;" points="430.1,200.5 430.1,193.6 454.1,193.5 454.1,200.4 	"/>
	<polygon style="fill:#66AA58;" points="408.1,259.1 408,245.1 416.9,245 417,259 	"/>
	<polygon style="fill:#66AA58;" points="417.9,259 417.8,245 428.4,245 428.5,259 	"/>
	
		<rect x="429.7" y="244.6" transform="matrix(-4.486017e-03 -1 1 -4.486017e-03 186.6041 682.4198)" style="fill:#66AA58;" width="6.5" height="7.4"/>
	<polygon style="fill:#66AA58;" points="408.2,271.4 408.1,260 416.9,259.9 428.5,259.9 428.5,266.7 420.6,271.3 	"/>
	<polygon style="fill:#66AA58;" points="444.6,245 444.6,266.6 429.2,266.7 429.2,252.5 437.6,252.6 437.6,245 	"/>
	<polygon style="fill:#66AA58;" points="445.5,266.6 445.5,244.9 455.5,244.9 455.6,266.5 	"/>
	<polygon style="fill:#66AA58;" points="408.2,272.5 420.8,272.5 421,290.7 408.3,290.7 	"/>
	<polygon style="fill:#66AA58;" points="421.6,271.7 429,267.4 455.6,267.3 455.6,290.5 421.9,290.6 	"/>
	<polygon style="fill:#66AA58;" points="489.6,290.3 464.4,290.4 456.8,290.4 456.8,284.4 457.1,244.9 464.3,244.8 489.6,244.6 	"/>
	<polygon style="fill:#64A351;" points="497.6,170.3 494.4,168.6 481.5,168.6 481.5,163.7 497.6,163.6 	"/>
	<polygon style="fill:#64A351;" points="497.6,171.5 497.6,176.1 481.5,176.1 481.5,169.5 493.9,169.5 	"/>
	<polygon style="fill:#64A351;" points="506.4,163.6 506.2,176.1 499,176.1 499.1,163.6 	"/>
	<polygon style="fill:#64A351;" points="515.5,163.6 515.5,176.1 507.2,176.1 507.3,163.6 	"/>
	<polygon style="fill:#64A351;" points="515.5,177.2 515.5,199.6 481.5,199.7 481.5,177.2 	"/>
	<polygon style="fill:#64A351;" points="508.6,201 508.6,208.9 481.5,209 481.5,201.1 	"/>
	<polygon style="fill:#64A351;" points="532.8,163.6 530.6,172.3 516.6,172.4 516.6,163.6 	"/>
	<polygon style="fill:#64A351;" points="545.8,172.3 531.5,172.3 533.6,164.5 546.5,166.3 	"/>
	<polygon style="fill:#64A351;" points="545.6,173.4 544.8,180.1 516.6,180.2 516.6,173.4 	"/>
	<polygon style="fill:#64A351;" points="544.2,185.1 544.2,188.8 516.5,188.8 516.6,180.9 544.6,180.8 	"/>
	<polygon style="fill:#66AA58;" points="576.6,175.3 576.6,180 558.5,180 560.4,173.1 	"/>
	<polygon style="fill:#66AA58;" points="576.6,181.1 576.5,191.7 555.2,191.8 558.2,181.1 	"/>
	<polygon style="fill:#66AA58;" points="603.3,179.8 603.2,191.7 577.5,191.7 577.6,175.5 599.6,179.3 599.5,179.2 	"/>
	<polygon style="fill:#64A351;" points="544.3,189.5 544.2,199.8 516.5,199.8 516.6,189.6 	"/>
	<polygon style="fill:#66AA58;" points="585,203.3 554.1,203.4 554.1,195.7 554.9,192.7 585.1,192.6 	"/>
	<polygon style="fill:#66AA58;" points="554,223.6 554.1,215.8 566.1,215.7 566,223.6 	"/>
	<polygon style="fill:#66AA58;" points="586,204.1 586.1,192.6 603.2,192.6 602.9,219.7 566.8,219.8 566.8,214.8 554,214.9 
		554.1,204.2 	"/>
	<polygon style="fill:#66AA58;" points="565.9,235.4 565.8,243.3 553.9,243.3 554,235.5 	"/>
	<polygon style="fill:#66AA58;" points="602.9,220.7 602.6,236.6 594.6,236.7 594.5,243.1 566.8,243.2 566.8,236.3 567,220.8 	"/>
	<polygon style="fill:#66AA58;" points="602.6,243 595.4,243 595.5,237.3 602.6,237.3 	"/>
	<polygon style="fill:#66AA58;" points="557.5,255.5 564.9,255.4 564.8,266.1 584.4,265.9 584.3,272.3 557.3,272.8 	"/>
	<polygon style="fill:#66AA58;" points="565.8,265.2 565.8,255.4 602.6,255.3 602.4,272.2 585.3,272.2 585.3,265.2 	"/>
	<polygon style="fill:#66AA58;" points="493.9,256.7 494,244.7 506.9,244.6 506.9,256.6 	"/>
	<polygon style="fill:#66AA58;" points="517.8,256.4 507.8,256.5 507.8,244.6 517.8,244.6 	"/>
	<polygon style="fill:#66AA58;" points="518.6,256.4 518.6,244.6 526.8,244.5 526.6,256.4 	"/>
	<polygon style="fill:#64A351;" points="524,290 524.1,283.5 534.3,283.5 534.3,289.9 	"/>
	<polygon style="fill:#66AA58;" points="527.6,244.5 543.6,244.5 544,289.9 535.2,289.9 535.3,282.6 523.2,282.7 523.1,290 
		490.9,290.2 490.9,264.9 507.8,264.8 507.8,257.6 527.6,257.5 	"/>
	<polygon style="fill:#66AA58;" points="557.2,288.5 557.3,273.6 570.9,273.5 570.6,288.4 	"/>
	<polygon style="fill:#66AA58;" points="571.6,273.4 578.1,273.4 578,288.4 571.6,288.4 	"/>
	<polygon style="fill:#66AA58;" points="578.9,288.4 579,273.3 584.4,273.3 584.2,288.4 	"/>
	<polygon style="fill:#66AA58;" points="585.1,288.4 585.3,273.2 592,273.2 591.8,288.3 	"/>
	<polygon style="fill:#66AA58;" points="592.6,288.3 592.8,273.2 602.4,273.2 602.2,288.3 	"/>
	<polygon style="fill:#66AA58;" points="612.8,273.1 612.6,288.2 603,288.3 603.2,273.2 	"/>
	<polygon style="fill:#66AA58;" points="623,273.1 622.8,288.2 613.2,288.2 613.4,273.1 	"/>
	<polygon style="fill:#64A351;" points="481.5,221.1 481.5,210.1 504.1,210 504.1,221.1 	"/>
	<polygon style="fill:#64A351;" points="481.5,227.9 481.5,222.3 492.5,222.3 492.4,227.9 	"/>
	<polygon style="fill:#64A351;" points="504.1,222.2 504,227.9 493.3,227.9 493.3,222.2 	"/>
	<polygon style="fill:#64A351;" points="509.8,208.9 509.8,200.9 544.2,200.8 544.1,208.8 	"/>
	<polygon style="fill:#64A351;" points="544.1,209.9 544.1,216.9 525.9,217 516.5,213.8 516.5,209.9 	"/>
	<polygon style="fill:#64A351;" points="505,227.9 505.1,210 515.3,210 515.3,214.7 518.6,215.7 518.6,227.8 	"/>
	<polygon style="fill:#64A351;" points="530.3,218.1 530.3,227.8 519.5,227.8 519.6,216.2 525.6,218.1 	"/>
	<polygon style="fill:#64A351;" points="544,227.7 531.1,227.8 531.2,218.1 544.1,218 	"/>
	<polygon style="fill:#66AA58;" points="409.4,228.3 409.2,202.5 429.2,202.5 429.2,218.8 420,218.8 420.1,228.3 	"/>
	<polygon style="fill:#66AA58;" points="429.2,219.6 429.3,228.2 420.8,228.3 420.8,219.6 	"/>
	<polygon style="fill:#66AA58;" points="454.1,201.6 454.1,209.3 430.2,209.4 430.1,201.6 	"/>
	<polygon style="fill:#66AA58;" points="454.1,210.4 454.2,221.5 430.2,221.6 430.2,210.5 	"/>
	<polygon style="fill:#66AA58;" points="442.3,222.8 442.3,228.2 430.3,228.2 430.3,222.8 	"/>
	<polygon style="fill:#66AA58;" points="454.1,222.6 454.2,228.1 443,228.1 442.9,222.6 	"/>
	<polygon style="fill:#66AA58;" points="465,232.3 464.6,232.3 464.3,232.2 464.1,232.1 464,231.9 463.9,231.8 463.9,227.3 
		464,227.2 464.1,227.2 464.2,227.2 466.1,227.2 467,227.2 468,227.3 468.9,227.4 469.9,227.5 470.8,227.8 471.9,228.1 473,228.5 
		473.8,228.7 474.2,228.9 474.8,229 475,229.1 475.2,229.3 475.2,229.3 475.2,231.7 475.1,231.8 475,232 474.8,232.1 474.6,232.2 
		474.4,232.2 474,232.3 	"/>
	<polygon style="fill:#A9CB9C;" points="392.1,191.4 392.3,197.3 383,197.3 383.2,191.5 	"/>
	<path style="fill:#585857;" d="M565.4,283.9c-0.3,0.4-0.5,0.7-0.7,1C564.9,284.6,565.1,284.3,565.4,283.9"/>
	<path style="fill:#555454;" d="M564.8,284.9L564.8,284.9L564.8,284.9z"/>
	<path style="fill:#515150;" d="M564.8,284.9L564.8,284.9L564.8,284.9z"/>
	<polygon style="fill:#4D4D4C;" points="564.8,284.9 564.8,284.9 564.6,284.9 	"/>
	<path style="fill:#484847;" d="M564.6,284.9L564.6,284.9L564.6,284.9z"/>
	<path style="fill:#434342;" d="M564.6,284.9L564.6,284.9L564.6,284.9z"/>
	<path style="fill:#3D3D3C;" d="M564.6,284.9L564.6,284.9L564.6,284.9z"/>
	<path style="fill:#343433;" d="M564.6,284.9L564.6,284.9L564.6,284.9z"/>
	<path style="fill:#757574;" d="M414.5,287.4C414.5,287.4,414.5,287.3,414.5,287.4C414.5,287.3,414.5,287.4,414.5,287.4"/>
	<path style="fill:#737372;" d="M414.6,287.3c0.2-0.2,0.3-0.4,0.5-0.5C414.9,286.9,414.6,287.1,414.6,287.3"/>
	<path style="fill:#717070;" d="M415,286.8L415,286.8c0.1-0.1,0.1-0.2,0.2-0.2C415.2,286.6,415.1,286.7,415,286.8"/>
	<path style="fill:#6F6F6E;" d="M415.2,286.5L415.2,286.5c0-0.1,0.1-0.1,0.1-0.2C415.3,286.4,415.3,286.5,415.2,286.5"/>
	<path style="fill:#6D6C6C;" d="M415.3,286.4l0.1-0.1C415.4,286.3,415.4,286.3,415.3,286.4"/>
	<path style="fill:#6B6A6A;" d="M415.4,286.3L415.4,286.3C415.4,286.2,415.5,286.2,415.4,286.3C415.5,286.2,415.4,286.2,415.4,286.3
		"/>
	<path style="fill:#686867;" d="M415.5,286.2L415.5,286.2L415.5,286.2z"/>
	<path style="fill:#666665;" d="M415.5,286.2L415.5,286.2L415.5,286.2z"/>
	<path style="fill:#636362;" d="M415.5,286.2L415.5,286.2L415.5,286.2z"/>
	<path style="fill:#616160;" d="M415.5,286.2L415.5,286.2L415.5,286.2z"/>
	<path style="fill:#5E5E5D;" d="M415.5,286.2L415.5,286.2L415.5,286.2z"/>
	<path style="fill:#5B5B5A;" d="M415.5,286.2L415.5,286.2L415.5,286.2z"/>
	<path style="fill:#585857;" d="M415.5,286.2L415.5,286.2L415.5,286.2z"/>
	<path style="fill:#555454;" d="M415.5,286.2L415.5,286.2L415.5,286.2z"/>
	<polygon style="fill:#515150;" points="415.5,286.2 415.5,286.2 415.5,286.1 	"/>
	<path style="fill:#4D4D4C;" d="M415.5,286.1L415.5,286.1L415.5,286.1z"/>
	<path style="fill:#484847;" d="M415.5,286.1L415.5,286.1L415.5,286.1z"/>
	<path style="fill:#434342;" d="M415.5,286.1L415.5,286.1L415.5,286.1z"/>
	<path style="fill:#3D3D3C;" d="M415.5,286.1L415.5,286.1L415.5,286.1z"/>
	<path style="fill:#343433;" d="M415.5,286.1L415.5,286.1L415.5,286.1z"/>
	<polygon style="fill:#343433;" points="421.1,247.3 421.1,247.3 421.1,247.4 	"/>
	<polygon style="fill:#ACC280;" points="392.2,79.8 360.6,41 418.1,42.6 418.3,73.3 	"/>
	<polygon style="fill:#ACC280;" points="295.9,95.3 295.8,88.2 302.6,52.7 320.6,40.9 359.6,41 391.6,80.2 380.6,85.7 380.8,95.3 	
		"/>
	<polygon style="fill:#ACC280;" points="419.2,73.2 419,42.6 432.4,42.6 432.5,69.6 	"/>
	<polygon style="fill:#ACC280;" points="296.5,113.8 296.2,96.3 381.1,96.3 381.1,113.8 	"/>
	<polygon style="fill:#ACC280;" points="296.6,140.8 296.3,115.2 381,115.1 381.3,140.7 	"/>
	<path style="fill:#998573;" d="M329,106.9L329,106.9L329,106.9z"/>
	<polygon style="fill:#ACC280;" points="611.6,51.9 592.9,51.5 592.6,43.5 613.1,44 613,50.2 	"/>
</g>
<g id="Layer_2">
	<line style="fill:none;stroke:#000000;stroke-width:2;stroke-miterlimit:10;" x1="392.8" y1="293.2" x2="607.8" y2="293.2"/>
	<line style="fill:none;stroke:#000000;stroke-width:2;stroke-miterlimit:10;" x1="393.6" y1="294" x2="393.6" y2="154.2"/>
	<line style="fill:none;stroke:#000000;stroke-width:2;stroke-miterlimit:10;" x1="550.2" y1="154.5" x2="378.2" y2="154.5"/>
	<line style="fill:none;stroke:#000000;stroke-width:2;stroke-miterlimit:10;" x1="553.2" y1="238.4" x2="371" y2="238.4"/>
	<line style="fill:none;stroke:#000000;stroke-width:2;stroke-miterlimit:10;" x1="466.1" y1="227.2" x2="466" y2="154.9"/>
	<line style="fill:none;stroke:#000000;stroke-width:2;stroke-miterlimit:10;" x1="595.4" y1="247.4" x2="549.1" y2="247.4"/>
	<line style="fill:none;stroke:#000000;stroke-width:2;stroke-miterlimit:10;" x1="549.2" y1="293.2" x2="549.1" y2="238.4"/>
	<line style="fill:none;stroke:#000000;stroke-width:2;stroke-miterlimit:10;" x1="549.1" y1="239.2" x2="549.2" y2="155.2"/>
	<line style="fill:none;stroke:#000000;stroke-width:2;stroke-miterlimit:10;" x1="456.8" y1="224" x2="478.3" y2="224"/>
	<line style="fill:none;stroke:#000000;stroke-width:2;stroke-miterlimit:10;" x1="478.3" y1="238.3" x2="478.3" y2="223.3"/>
	<line style="fill:none;stroke:#000000;stroke-width:2;stroke-miterlimit:10;" x1="456.8" y1="239.2" x2="456.8" y2="223.2"/>
	<line style="fill:none;stroke:#000000;stroke-width:2;stroke-miterlimit:10;" x1="477.4" y1="79.6" x2="477.4" y2="155.6"/>
	<line style="fill:none;stroke:#000000;stroke-width:2;stroke-miterlimit:10;" x1="385.5" y1="154.2" x2="385.5" y2="95.5"/>
	<line style="fill:none;stroke:#000000;stroke-width:2;stroke-miterlimit:10;" x1="385.5" y1="95.5" x2="415.6" y2="79"/>
	<line style="fill:none;stroke:#000000;stroke-width:2;stroke-miterlimit:10;" x1="416.3" y1="79" x2="589.8" y2="79"/>
	<path style="fill:none;stroke:#000000;stroke-width:3;stroke-miterlimit:10;" d="M548.8,156.6c5.4-15.5,12.2-28.6,16.6-36.2
		c3.8-6.7,7.7-12.7,16.8-28.3c3.4-5.9,4.6-10,6.5-13.4"/>
	<path style="fill:none;stroke:#000000;stroke-width:3;stroke-miterlimit:10;" d="M573.1,78.8c-0.3-0.9-0.5-3.2-0.5-3.7
		c0-0.8,0.1-1.4,0.1-1.7c0,0,0.1-0.7,0.3-1.4c0.4-1.5,7.4-10.7,15-8.2c3.5,1.1,7.1,4.7,6.4,7.5c-0.9,4-9.8,4.6-10.7,4.7
		c-3.9,0.3-8-2.4-9.9-3.1"/>
</g>
<line style="fill:none;stroke:#000000;stroke-width:2;stroke-miterlimit:10;" x1="435.2" y1="79.6" x2="435.2" y2="40.9"/>
</svg>
