<?xml version="1.0" encoding="utf-8"?>
<!-- Generator: Adobe Illustrator 19.1.0, SVG Export Plug-In . SVG Version: 6.00 Build 0)  -->
<svg version="1.1" id="svgroot" xmlns="http://www.w3.org/2000/svg" xmlns:xlink="http://www.w3.org/1999/xlink" x="0px" y="0px"
	 viewBox="261 -199.6 1133.9 1190.6" style="enable-background:new 261 -199.6 1133.9 1190.6;" xml:space="preserve">
<style type="text/css">
	.st0{fill:#D3D4D5;}
	.st1{fill:#D3D5D5;}
	.st2{fill:#AFAFAF;}
	.st3{fill:#ACC280;}
	.st4{fill:#66AA58;}
	.st5{fill:#64A351;}
	.st6{fill:#A9CB9C;}
	.st7{fill:#585857;}
	.st8{fill:#555454;}
	.st9{fill:#515150;}
	.st10{fill:#4D4D4C;}
	.st11{fill:#484847;}
	.st12{fill:#434342;}
	.st13{fill:#3D3D3C;}
	.st14{fill:#343433;}
	.st15{fill:#757574;}
	.st16{fill:#737372;}
	.st17{fill:#717070;}
	.st18{fill:#6F6F6E;}
	.st19{fill:#6D6C6C;}
	.st20{fill:#6B6A6A;}
	.st21{fill:#686867;}
	.st22{fill:#666665;}
	.st23{fill:#636362;}
	.st24{fill:#616160;}
	.st25{fill:#5E5E5D;}
	.st26{fill:#5B5B5A;}
	.st27{fill:#998573;}
	.st28{fill:none;stroke:#000000;stroke-width:2;stroke-miterlimit:10;}
	.st29{fill:none;stroke:#000000;stroke-width:3;stroke-miterlimit:10;}
</style>
<g id="Layer_0">
	<path class="st0" d="M558.4-59.3l-1-56.3l62.1-41.2l232.1,0.4l36.6,0.1l32.2,0.1l0.8,6.8l-56.4,28.5L863.9-46l-17.3-2.3l-0.3,28.4
		h17.2l0.9,66L801,46l-0.1,44.3l-135,0.4l-0.4-44.3h-21.8L643.5,23l-0.8-82.3L558.4-59.3 M721.6-17.4c-0.6,0.7-0.6,1.8-0.6,1.8
		c0,1.5,0.1,29,0.1,29.8s0.8,1.8,1.8,1.8s6.1,0,6.4,0c0.1,0.1,1.7,1.5,4.4,1.5c0.1,0,0.3,0,0.4,0c0.8,0,2.9-0.7,2.9-2.6
		c0-0.6-0.1-28.6-0.1-30.1c0-0.1,0.1-1.4-0.5-2.1c-0.5-0.6-1.4-0.6-1.7-0.6c-0.1,0-0.1,0-0.1,0L723.3-18c0,0-0.1,0-0.2,0
		C722.9-18,722.1-18,721.6-17.4 M779.9-129.9v8.2l1.3,1.1h23.7l1.3-1.1l0.1-8.2L805-131h-23.7L779.9-129.9 M722-36.5
		c0,1.7,0,12.3,0,12.9c0,0.1,0,1.5,0.7,2.1c0.5,0.4,1.7,0.5,2.3,0.5c0.2,0,0.3,0,0.3,0h8.5c0.1,0,1.2,0,1.9-0.7
		c0.7-0.7,0.6-1.9,0.6-2c0-0.6,0.1-12,0.1-13.2s-1.7-1.4-1.8-1.4h-11C723.5-38.3,722-38.2,722-36.5 M732.8-130l-4.2,6.4l8,5l4.3-1.5
		l7.2-3.5l-4.2-6.4H732.8 M818.8-54.7l4.9-20.1l-1.4-0.4L813.6-56L818.8-54.7 M846.3-131.6l-8,6.5l7.9,6.5l8-6.5L846.3-131.6
		 M809.4-129.9l-0.1,8.2h15.9l4-4.7l-5.9-3.4L809.4-129.9 M763.6-129.9l-6.4,3.8l3.5,4.4h16v-8.2L763.6-129.9 M811.6-21.6l3.9-16.7
		l-4.9-0.4L810-21.6H811.6 M816.4-42l1.4-7.5l-6.2-1.5l-1.4,7.5L816.4-42"/>
	<polygon class="st1" points="614.6,46.5 614.4,22.4 646.3,22.3 646.5,46.4 	"/>
	<polygon class="st1" points="558.8,-41.5 558.4,-60.9 648.5,-61 648.6,-41.7 	"/>
	<polygon class="st2" points="645.5,98.4 645,46.1 669.1,46 669.4,89.5 717,89.3 717,80.1 726.6,80 726.6,89.2 804.1,88.8 
		804.4,43.7 863.9,43.4 863.6,71.4 884.6,71.3 884.3,97 	"/>
	<polygon class="st2" points="687.6,-156.5 687.6,-180.3 707.3,-180.2 707.4,-156.5 	"/>
</g>
<g id="Layer_1">
	<polygon class="st0" points="843.9,-8.4 844.3,-49.3 862,-49.4 861.6,-8.4 	"/>
	<polygon class="st3" points="748.8,-99.6 744.1,-104.1 747.6,-107.2 750.1,-109.2 752.3,-111.1 760.2,-111 760.1,-99.6 	"/>
	<polygon class="st3" points="761.5,-97.3 761.5,-110.8 761.5,-111 772.5,-111 772.4,-97.3 	"/>
	<polygon class="st3" points="743.2,-91.4 743.2,-103.4 748.2,-98.2 760.1,-98.2 760.1,-91.4 	"/>
	<polygon class="st3" points="773.4,-97.4 773.5,-111 784.4,-111.1 784.3,-97.4 	"/>
	<polygon class="st3" points="743.2,-82 743.2,-90 761.5,-90 761.5,-96.1 777.4,-96.1 777.4,-82 	"/>
	<polygon class="st3" points="743.2,-71.4 743.2,-80.9 755,-80.9 755,-71.4 	"/>
	<polygon class="st3" points="657.5,-92.5 657.5,-97.6 679,-110.8 682.6,-110.8 682.6,-92.6 	"/>
	<polygon class="st3" points="657.5,-86 657.5,-91.9 682.6,-91.9 682.6,-86 	"/>
	<polygon class="st3" points="683.6,-89.3 683.5,-110.8 691.6,-110.8 691.6,-89.3 	"/>
	<polygon class="st3" points="692.6,-89.2 692.5,-110.7 700.6,-110.7 700.6,-89.2 	"/>
	<polygon class="st3" points="701.5,-89.2 701.5,-110.7 709.6,-110.7 709.6,-89.2 	"/>
	<polygon class="st3" points="657.6,-73.4 657.6,-79.3 682.6,-79.4 682.6,-73.4 	"/>
	<polygon class="st3" points="657.6,-67.1 657.6,-72.8 682.6,-72.8 682.6,-67.1 	"/>
	<polygon class="st3" points="743.5,-54.2 743.2,-70.3 754.9,-70.3 754.9,-54.2 	"/>
	<polygon class="st3" points="755.8,-54.2 755.8,-80.8 764.4,-80.8 764.3,-54.2 	"/>
	<polygon class="st3" points="765.2,-54.2 765.3,-80.8 777.3,-80.8 777.2,-54.3 	"/>
	<polygon class="st3" points="795.4,-97.5 785.3,-97.5 785.4,-111 795.5,-111 	"/>
	<polygon class="st3" points="807.8,-97.3 796.3,-97.4 796.3,-111 807.9,-111 	"/>
	<polygon class="st3" points="808.8,-99.6 808.9,-110.2 808.9,-111 816.1,-111 816,-99.6 	"/>
	<polygon class="st3" points="821.8,-99.6 816.8,-99.6 816.9,-111 826.5,-111 826.5,-103.7 821.8,-103.7 	"/>
	<polygon class="st3" points="827.2,-103.7 827.3,-111 838.9,-111 841.1,-108.4 838.1,-103.8 	"/>
	<polygon class="st3" points="831.6,-96.5 822.5,-97.8 822.5,-102.9 836.8,-102.9 834.3,-99.2 	"/>
	<polygon class="st3" points="823.8,-88.9 808.6,-96.1 809.2,-98.5 821.6,-98.5 821.6,-97 830.9,-95.7 	"/>
	<polygon class="st3" points="818.8,-80.2 800.6,-87.1 778.6,-87.9 778.5,-96.1 806,-96.1 823.4,-88 	"/>
	<polygon class="st3" points="812.2,-68.6 795.4,-74.5 778.6,-75.3 778.3,-87 800.4,-86.1 818.5,-79.3 812.5,-69.2 	"/>
	<polygon class="st3" points="808.6,-59.1 778.4,-65.5 778.4,-74.2 795.3,-73.4 812.1,-67.5 	"/>
	<polygon class="st3" points="778.4,-54.2 778.5,-64.3 791.6,-62.2 791.6,-58.8 794.8,-57.8 794.8,-54.6 	"/>
	<polygon class="st3" points="795.6,-54.3 795.6,-58.1 792.4,-59.4 792.4,-61.6 808.3,-58.3 807.2,-54.3 	"/>
	<polygon class="st3" points="702.1,-134.9 702.1,-142.3 710.3,-142.3 710.3,-134.9 	"/>
	<polygon class="st3" points="711,-134.8 711,-142.9 702.2,-142.9 702,-156.7 718.2,-156.7 718.3,-134.9 	"/>
	<polygon class="st3" points="731.6,-134.3 728,-137.6 727.9,-156.7 737.4,-156.7 737.4,-134.3 	"/>
	<polygon class="st3" points="724.1,-130.1 719.2,-134.7 719.2,-156.7 726.8,-156.7 727,-137.1 730.3,-134.4 728.3,-130.3 	"/>
	<polygon class="st3" points="738.6,-134.3 738.6,-156.7 748.6,-156.7 748.6,-134.3 	"/>
	<polygon class="st3" points="749.9,-134.3 749.9,-156.7 771.8,-156.6 771.9,-151.3 771.8,-134.3 	"/>
	<polygon class="st3" points="773,-134.2 773,-156.6 800.2,-156.5 800.1,-134.2 	"/>
	<polygon class="st3" points="800.9,-134.3 801.1,-156.6 812.6,-156.6 812.6,-134.2 	"/>
	<polygon class="st3" points="813.6,-134.2 813.6,-141 824.5,-141 824.5,-134.2 	"/>
	<polygon class="st3" points="825.3,-134.2 825.3,-141.5 813.5,-141.5 813.6,-156.7 840.1,-156.6 839.8,-136.4 836.1,-134.2 	"/>
	<polygon class="st3" points="841,-138.5 841.2,-156.5 853,-156.5 852.8,-148.6 	"/>
	<polygon class="st3" points="923.3,-120.8 862.6,-120.9 862.9,-130.2 874.6,-149.3 874.6,-155.7 923.9,-155.8 	"/>
	<polygon class="st3" points="850.2,-89.7 842.3,-95.9 848.4,-101.5 854.4,-97.3 864.3,-97.3 864.2,-89.7 	"/>
	<polygon class="st3" points="854.8,-98.4 849.2,-102.2 862.6,-119.6 923.1,-119.6 922.8,-98.4 	"/>
	<polygon class="st3" points="845,-80.9 831.2,-80.9 832,-84.8 836.4,-88.9 845,-85.9 	"/>
	<polygon class="st3" points="827.6,-64.3 829.5,-72.2 846.1,-72.1 846,-64.4 	"/>
	<polygon class="st3" points="846.8,-64.3 846.9,-73.3 830,-73.3 831,-80.1 846.1,-80.1 846.2,-85.1 850.8,-88.8 864.5,-88.7 
		864.2,-64.4 	"/>
	<polygon class="st3" points="864,-42.7 825.1,-51.5 827.4,-63.4 864.2,-63.5 	"/>
	<polygon class="st3" points="657.6,-60.6 657.6,-66.3 682.8,-66.3 682.8,-60.6 	"/>
	<polygon class="st3" points="657.8,-54.1 657.8,-59.8 682.8,-59.8 682.8,-54.1 	"/>
	<polygon class="st3" points="683.6,-54.2 683.5,-75.6 691.6,-75.6 691.8,-54.2 	"/>
	<polygon class="st3" points="692.6,-54.2 692.5,-75.6 700.6,-75.6 700.8,-54.2 	"/>
	<polyline class="st3" points="709.5,-88.5 709.5,-71.9 709.6,-54.1 701.6,-54.2 701.6,-88 	"/>
	<polygon class="st3" points="710.4,-101.2 710.4,-110.7 722.4,-110.7 722.4,-101.2 	"/>
	<polygon class="st3" points="723.1,-101.1 723.1,-110.6 735,-110.6 735,-101.1 	"/>
	<polygon class="st3" points="710.5,-94.4 710.5,-100.1 735.1,-100.1 735.1,-94.4 	"/>
	<polygon class="st3" points="710.6,-88 710.6,-93.7 734.9,-93.7 734.9,-88 	"/>
	<polygon class="st3" points="710.5,-80.8 710.5,-87.5 735,-87.5 735,-80.8 	"/>
	<polygon class="st3" points="710.5,-73.6 710.5,-80.3 735,-80.3 735,-73.6 	"/>
	<polygon class="st3" points="710.4,-54.2 710.3,-72.8 719.9,-72.8 719.9,-54.2 	"/>
	<polygon class="st3" points="721.1,-65.1 721,-72.8 735,-72.8 735,-65.1 	"/>
	<polygon class="st3" points="721,-54.1 721,-64.1 735.1,-64.2 735.1,-54.1 	"/>
	<polygon class="st3" points="862.5,-29.2 822.6,-38.9 825,-50.7 863.6,-42 	"/>
	<polyline class="st3" points="700.3,-76.5 683.6,-76.6 683.6,-88.5 700.4,-88.3 	"/>
	<polygon class="st4" points="644.3,9.8 644.2,-1.5 653.2,-1.5 653.2,9.8 	"/>
	<polygon class="st4" points="653.3,10.6 653.4,22.8 644.3,22.8 644.2,10.6 	"/>
	<polygon class="st4" points="652.9,-31.8 653,-20.7 644.1,-20.7 644,-37.4 647.9,-37.4 	"/>
	<polygon class="st4" points="653,-19.5 653.1,-9.2 644.1,-9.2 644,-19.5 	"/>
	<polygon class="st4" points="689.1,-36 689.2,-28.9 676.6,-28.9 676.6,-35.9 	"/>
	<polygon class="st4" points="702.5,-29 690,-28.9 689.9,-36 702.5,-35.9 	"/>
	<polygon class="st4" points="715,-35.1 715,-29 703.5,-29 703.5,-35.9 714.1,-35.9 	"/>
	<polygon class="st4" points="668.6,-28.9 668.8,-14.5 660.1,-14.5 660,-31.8 665,-35.9 675.9,-35.9 675.9,-28.9 	"/>
	<polygon class="st4" points="669.9,-14.6 669.8,-27.8 714.9,-27.9 714.9,-14.7 	"/>
	<polygon class="st4" points="690,-13.5 690.1,1.9 660.3,2 660.2,-4.1 660.2,-7 660.1,-13.4 	"/>
	<polygon class="st4" points="669.1,2.9 669.3,28 660.4,24.6 660.3,3 	"/>
	<polygon class="st4" points="715.1,-13.5 715.1,-7.2 691,-7.1 691,-13.4 	"/>
	<polygon class="st4" points="691.1,0.9 691.1,-6 715.1,-6.1 715.1,0.8 	"/>
	<polygon class="st4" points="669.1,59.5 669,45.5 677.9,45.4 678,59.4 	"/>
	<polygon class="st4" points="678.9,59.4 678.8,45.4 689.4,45.4 689.5,59.4 	"/>
	
		<rect x="690.7" y="45.1" transform="matrix(4.485972e-03 1 -1 4.485972e-03 739.6042 -645.4177)" class="st4" width="6.5" height="7.4"/>
	<polygon class="st4" points="669.2,71.8 669.1,60.4 677.9,60.3 689.5,60.3 689.5,67.1 681.6,71.7 	"/>
	<polygon class="st4" points="705.6,45.4 705.6,67 690.2,67.1 690.2,52.9 698.6,53 698.6,45.4 	"/>
	<polygon class="st4" points="706.5,67 706.5,45.3 716.5,45.3 716.6,66.9 	"/>
	<polygon class="st4" points="669.2,72.9 681.8,72.9 682,91.1 669.3,91.1 	"/>
	<polygon class="st4" points="682.6,72.1 690,67.8 716.6,67.7 716.6,90.9 682.9,91 	"/>
	<polygon class="st4" points="750.6,90.7 725.4,90.8 717.8,90.8 717.8,84.8 718.1,45.3 725.3,45.2 750.6,45 	"/>
	<polygon class="st5" points="758.6,-29.3 755.4,-31 742.5,-31 742.5,-35.9 758.6,-36 	"/>
	<polygon class="st5" points="758.6,-28.1 758.6,-23.5 742.5,-23.5 742.5,-30.1 754.9,-30.1 	"/>
	<polygon class="st5" points="767.4,-36 767.2,-23.5 760,-23.5 760.1,-36 	"/>
	<polygon class="st5" points="776.5,-36 776.5,-23.5 768.2,-23.5 768.3,-36 	"/>
	<polygon class="st5" points="776.5,-22.4 776.5,0 742.5,0.1 742.5,-22.4 	"/>
	<polygon class="st5" points="769.6,1.4 769.6,9.3 742.5,9.4 742.5,1.5 	"/>
	<polygon class="st5" points="793.8,-36 791.6,-27.3 777.6,-27.2 777.6,-36 	"/>
	<polygon class="st5" points="806.8,-27.3 792.5,-27.3 794.6,-35.1 807.5,-33.3 	"/>
	<polygon class="st5" points="806.6,-26.2 805.8,-19.5 777.6,-19.4 777.6,-26.2 	"/>
	<polygon class="st5" points="805.2,-14.5 805.2,-10.8 777.5,-10.8 777.6,-18.7 805.6,-18.8 	"/>
	<polygon class="st4" points="837.6,-24.3 837.6,-19.6 819.5,-19.6 821.4,-26.5 	"/>
	<polygon class="st4" points="837.6,-18.5 837.5,-7.9 816.2,-7.8 819.2,-18.5 	"/>
	<polygon class="st4" points="864.3,-19.8 864.2,-7.9 838.5,-7.9 838.6,-24.1 860.6,-20.3 860.5,-20.4 	"/>
	<polygon class="st5" points="805.3,-10.1 805.2,0.2 777.5,0.2 777.6,-10 	"/>
	<polygon class="st4" points="846,3.7 815.1,3.8 815.1,-3.9 815.9,-6.9 846.1,-7 	"/>
	<polygon class="st4" points="815,24 815.1,16.2 827.1,16.1 827,24 	"/>
	<polygon class="st4" points="847,4.5 847.1,-7 864.2,-7 863.9,20.1 827.8,20.2 827.8,15.2 815,15.3 815.1,4.6 	"/>
	<polygon class="st4" points="826.9,35.8 826.8,43.7 814.9,43.7 815,35.9 	"/>
	<polygon class="st4" points="863.9,21.1 863.6,37 855.6,37.1 855.5,43.5 827.8,43.6 827.8,36.7 828,21.2 	"/>
	<polygon class="st4" points="863.6,43.4 856.4,43.4 856.5,37.7 863.6,37.7 	"/>
	<polygon class="st4" points="818.5,55.9 825.9,55.8 825.8,66.5 845.4,66.3 845.3,72.7 818.3,73.2 	"/>
	<polygon class="st4" points="826.8,65.6 826.8,55.8 863.6,55.7 863.4,72.6 846.3,72.6 846.3,65.6 	"/>
	<polygon class="st4" points="754.9,57.1 755,45.1 767.9,45 767.9,57 	"/>
	<polygon class="st4" points="778.8,56.8 768.8,56.9 768.8,45 778.8,45 	"/>
	<polygon class="st4" points="779.6,56.8 779.6,45 787.8,44.9 787.6,56.8 	"/>
	<polygon class="st5" points="785,90.4 785.1,83.9 795.3,83.9 795.3,90.3 	"/>
	<polygon class="st4" points="788.6,44.9 804.6,44.9 805,90.3 796.2,90.3 796.3,83 784.2,83.1 784.1,90.4 751.9,90.6 751.9,65.3 
		768.8,65.2 768.8,58 788.6,57.9 	"/>
	<polygon class="st4" points="818.2,88.9 818.3,74 831.9,73.9 831.6,88.8 	"/>
	<polygon class="st4" points="832.6,73.8 839.1,73.8 839,88.8 832.6,88.8 	"/>
	<polygon class="st4" points="839.9,88.8 840,73.7 845.4,73.7 845.2,88.8 	"/>
	<polygon class="st4" points="846.1,88.8 846.3,73.6 853,73.6 852.8,88.7 	"/>
	<polygon class="st4" points="853.6,88.7 853.8,73.6 863.4,73.6 863.2,88.7 	"/>
	<polygon class="st4" points="873.8,73.5 873.6,88.6 864,88.7 864.2,73.6 	"/>
	<polygon class="st4" points="884,73.5 883.8,88.6 874.2,88.6 874.4,73.5 	"/>
	<polygon class="st5" points="742.5,21.5 742.5,10.5 765.1,10.4 765.1,21.5 	"/>
	<polygon class="st5" points="742.5,28.3 742.5,22.7 753.5,22.7 753.4,28.3 	"/>
	<polygon class="st5" points="765.1,22.6 765,28.3 754.3,28.3 754.3,22.6 	"/>
	<polygon class="st5" points="770.8,9.3 770.8,1.3 805.2,1.2 805.1,9.2 	"/>
	<polygon class="st5" points="805.1,10.3 805.1,17.3 786.9,17.4 777.5,14.2 777.5,10.3 	"/>
	<polygon class="st5" points="766,28.3 766.1,10.4 776.3,10.4 776.3,15.1 779.6,16.1 779.6,28.2 	"/>
	<polygon class="st5" points="791.3,18.5 791.3,28.2 780.5,28.2 780.6,16.6 786.6,18.5 	"/>
	<polygon class="st5" points="805,28.1 792.1,28.2 792.2,18.5 805.1,18.4 	"/>
	<polygon class="st4" points="670.4,28.7 670.2,2.9 690.2,2.9 690.2,19.2 681,19.2 681.1,28.7 	"/>
	<polygon class="st4" points="690.2,20 690.3,28.6 681.8,28.7 681.8,20 	"/>
	<polygon class="st4" points="715.1,2 715.1,9.7 691.2,9.8 691.1,2 	"/>
	<polygon class="st4" points="715.1,10.8 715.2,21.9 691.2,22 691.2,10.9 	"/>
	<polygon class="st4" points="703.3,23.2 703.3,28.6 691.3,28.6 691.3,23.2 	"/>
	<polygon class="st4" points="715.1,23 715.2,28.5 704,28.5 703.9,23 	"/>
	<polygon class="st4" points="726,32.7 725.6,32.7 725.3,32.6 725.1,32.5 725,32.3 724.9,32.2 724.9,27.7 725,27.6 725.1,27.6 
		725.2,27.6 727.1,27.6 728,27.6 729,27.7 729.9,27.8 730.9,27.9 731.8,28.2 732.9,28.5 734,28.9 734.8,29.1 735.2,29.3 735.8,29.4 
		736,29.5 736.2,29.7 736.2,29.7 736.2,32.1 736.1,32.2 736,32.4 735.8,32.5 735.6,32.6 735.4,32.6 735,32.7 	"/>
	<polygon class="st6" points="653.1,-8.2 653.3,-2.3 644,-2.3 644.2,-8.1 	"/>
	<path class="st7" d="M826.4,84.3c-0.3,0.4-0.5,0.7-0.7,1C825.9,85,826.1,84.7,826.4,84.3"/>
	<path class="st8" d="M825.8,85.3L825.8,85.3L825.8,85.3z"/>
	<path class="st9" d="M825.8,85.3L825.8,85.3L825.8,85.3z"/>
	<polygon class="st10" points="825.8,85.3 825.8,85.3 825.6,85.3 	"/>
	<path class="st11" d="M825.6,85.3L825.6,85.3L825.6,85.3z"/>
	<path class="st12" d="M825.6,85.3L825.6,85.3L825.6,85.3z"/>
	<path class="st13" d="M825.6,85.3L825.6,85.3L825.6,85.3z"/>
	<path class="st14" d="M825.6,85.3L825.6,85.3L825.6,85.3z"/>
	<path class="st15" d="M675.5,87.8C675.5,87.8,675.5,87.7,675.5,87.8C675.5,87.7,675.5,87.8,675.5,87.8"/>
	<path class="st16" d="M675.6,87.7c0.2-0.2,0.3-0.4,0.5-0.5C675.9,87.3,675.6,87.5,675.6,87.7"/>
	<path class="st17" d="M676,87.2L676,87.2c0.1-0.1,0.1-0.2,0.2-0.2C676.2,87,676.1,87.1,676,87.2"/>
	<path class="st18" d="M676.2,86.9L676.2,86.9c0-0.1,0.1-0.1,0.1-0.2C676.3,86.8,676.3,86.9,676.2,86.9"/>
	<path class="st19" d="M676.3,86.8l0.1-0.1C676.4,86.7,676.4,86.7,676.3,86.8"/>
	<path class="st20" d="M676.4,86.7L676.4,86.7C676.4,86.6,676.5,86.6,676.4,86.7C676.5,86.6,676.4,86.6,676.4,86.7"/>
	<path class="st21" d="M676.5,86.6L676.5,86.6L676.5,86.6z"/>
	<path class="st22" d="M676.5,86.6L676.5,86.6L676.5,86.6z"/>
	<path class="st23" d="M676.5,86.6L676.5,86.6L676.5,86.6z"/>
	<path class="st24" d="M676.5,86.6L676.5,86.6L676.5,86.6z"/>
	<path class="st25" d="M676.5,86.6L676.5,86.6L676.5,86.6z"/>
	<path class="st26" d="M676.5,86.6L676.5,86.6L676.5,86.6z"/>
	<path class="st7" d="M676.5,86.6L676.5,86.6L676.5,86.6z"/>
	<path class="st8" d="M676.5,86.6L676.5,86.6L676.5,86.6z"/>
	<polygon class="st9" points="676.5,86.6 676.5,86.6 676.5,86.5 	"/>
	<path class="st10" d="M676.5,86.5L676.5,86.5L676.5,86.5z"/>
	<path class="st11" d="M676.5,86.5L676.5,86.5L676.5,86.5z"/>
	<path class="st12" d="M676.5,86.5L676.5,86.5L676.5,86.5z"/>
	<path class="st13" d="M676.5,86.5L676.5,86.5L676.5,86.5z"/>
	<path class="st14" d="M676.5,86.5L676.5,86.5L676.5,86.5z"/>
	<polygon class="st14" points="682.1,47.7 682.1,47.7 682.1,47.8 	"/>
	<polygon class="st3" points="653.2,-119.8 621.6,-158.6 679.1,-157 679.3,-126.3 	"/>
	<polygon class="st3" points="556.9,-104.3 556.8,-111.4 563.6,-146.9 581.6,-158.7 620.6,-158.6 652.6,-119.4 641.6,-113.9 
		641.8,-104.3 	"/>
	<polygon class="st3" points="680.2,-126.4 680,-157 693.4,-157 693.5,-130 	"/>
	<polygon class="st3" points="557.5,-85.8 557.2,-103.3 642.1,-103.3 642.1,-85.8 	"/>
	<polygon class="st3" points="557.6,-58.8 557.3,-84.4 642,-84.5 642.3,-58.9 	"/>
	<path class="st27" d="M590-92.7L590-92.7L590-92.7z"/>
	<polygon class="st3" points="872.6,-147.7 853.9,-148.1 853.6,-156.1 874.1,-155.6 874,-149.4 	"/>
</g>
<g id="Layer_2">
	<line class="st28" x1="653.8" y1="93.6" x2="868.8" y2="93.6"/>
	<line class="st28" x1="654.6" y1="94.4" x2="654.6" y2="-45.4"/>
	<line class="st28" x1="811.2" y1="-45.1" x2="639.2" y2="-45.1"/>
	<line class="st28" x1="814.2" y1="38.8" x2="632" y2="38.8"/>
	<line class="st28" x1="727.1" y1="27.6" x2="727" y2="-44.7"/>
	<line class="st28" x1="856.4" y1="47.8" x2="810.1" y2="47.8"/>
	<line class="st28" x1="810.2" y1="93.6" x2="810.1" y2="38.8"/>
	<line class="st28" x1="810.1" y1="39.6" x2="810.2" y2="-44.4"/>
	<line class="st28" x1="717.8" y1="24.4" x2="739.3" y2="24.4"/>
	<line class="st28" x1="739.3" y1="38.7" x2="739.3" y2="23.7"/>
	<line class="st28" x1="717.8" y1="39.6" x2="717.8" y2="23.6"/>
	<line class="st28" x1="738.4" y1="-120" x2="738.4" y2="-44"/>
	<line class="st28" x1="646.5" y1="-45.4" x2="646.5" y2="-104.1"/>
	<line class="st28" x1="645.6" y1="-103.1" x2="678.3" y2="-120.7"/>
	<line class="st28" x1="677.3" y1="-120.6" x2="850.8" y2="-120.6"/>
	<path class="st29" d="M809.8-43c5.4-15.5,12.2-28.6,16.6-36.2c3.8-6.7,7.7-12.7,16.8-28.3c3.4-5.9,4.6-10,6.5-13.4"/>
	<path class="st29" d="M834.1-120.8c-0.3-0.9-0.5-3.2-0.5-3.7c0-0.8,0.1-1.4,0.1-1.7c0,0,0.1-0.7,0.3-1.4c0.4-1.5,7.4-10.7,15-8.2
		c3.5,1.1,7.1,4.7,6.4,7.5c-0.9,4-9.8,4.6-10.7,4.7c-3.9,0.3-8-2.4-9.9-3.1"/>
</g>
<line class="st28" x1="696.2" y1="-120" x2="696.2" y2="-158.7"/>
</svg>
