<?xml version="1.0" encoding="utf-8"?>
<!-- Generator: Adobe Illustrator 19.1.0, SVG Export Plug-In . SVG Version: 6.00 Build 0)  -->
<svg version="1.1" id="svgroot" xmlns="http://www.w3.org/2000/svg" xmlns:xlink="http://www.w3.org/1999/xlink" x="0px" y="0px"
	 viewBox="261 -199.6 1133.9 1190.6" style="enable-background:new 261 -199.6 1133.9 1190.6;" xml:space="preserve">
<g id="Layer_0">
	<path style="fill:#D3D4D5;" d="M613,166.9l-1-56.3l62.1-41.2l232.1,0.4l36.6,0.1L975,70l0.8,6.8l-56.4,28.5l-0.9,74.9l-17.3-2.3
		l-0.3,28.4h17.2l0.9,66l-63.4-0.1l-0.1,44.3l-135,0.4l-0.4-44.3h-21.8l-0.2-23.4l-0.8-82.3H613 M776.2,208.8
		c-0.6,0.7-0.6,1.8-0.6,1.8c0,1.5,0.1,29,0.1,29.8s0.8,1.8,1.8,1.8s6.1,0,6.4,0c0.1,0.1,1.7,1.5,4.4,1.5c0.1,0,0.3,0,0.4,0
		c0.8,0,2.9-0.7,2.9-2.6c0-0.6-0.1-28.6-0.1-30.1c0-0.1,0.1-1.4-0.5-2.1c-0.5-0.6-1.4-0.6-1.7-0.6c-0.1,0-0.1,0-0.1,0l-11.3-0.1
		c0,0-0.1,0-0.2,0C777.5,208.2,776.7,208.2,776.2,208.8 M834.5,96.3v8.2l1.3,1.1h23.7l1.3-1.1l0.1-8.2l-1.3-1.1h-23.7L834.5,96.3
		 M776.6,189.7c0,1.7,0,12.3,0,12.9c0,0.1,0,1.5,0.7,2.1c0.5,0.4,1.7,0.5,2.3,0.5c0.2,0,0.3,0,0.3,0h8.5c0.1,0,1.2,0,1.9-0.7
		s0.6-1.9,0.6-2c0-0.6,0.1-12,0.1-13.2s-1.7-1.4-1.8-1.4h-11C778.1,187.9,776.6,188,776.6,189.7 M787.4,96.2l-4.2,6.4l8,5l4.3-1.5
		l7.2-3.5l-4.2-6.4H787.4 M873.4,171.5l4.9-20.1l-1.4-0.4l-8.7,19.2L873.4,171.5 M900.9,94.6l-8,6.5l7.9,6.5l8-6.5L900.9,94.6
		 M864,96.3l-0.1,8.2h15.9l4-4.7l-5.9-3.4L864,96.3 M818.2,96.3l-6.4,3.8l3.5,4.4h16v-8.2H818.2 M866.2,204.6l3.9-16.7l-4.9-0.4
		l-0.6,17.1H866.2 M871,184.2l1.4-7.5l-6.2-1.5l-1.4,7.5L871,184.2"/>
	<polygon style="fill:#D3D5D5;" points="669.2,272.7 669,248.6 700.9,248.5 701.1,272.6 	"/>
	<polygon style="fill:#D3D5D5;" points="613.4,184.7 613,165.3 703.1,165.2 703.2,184.5 	"/>
	<polygon style="fill:#AFAFAF;" points="700.1,324.6 699.6,272.3 723.7,272.2 724,315.7 771.6,315.5 771.6,306.3 781.2,306.2 
		781.2,315.4 858.7,315 859,269.9 918.5,269.6 918.2,297.6 939.2,297.5 938.9,323.2 	"/>
	<polygon style="fill:#AFAFAF;" points="742.2,69.7 742.2,45.9 761.9,46 762,69.7 	"/>
</g>
<g id="Layer_1">
	<polygon style="fill:#D3D4D5;" points="898.5,217.8 898.9,176.9 916.6,176.8 916.2,217.8 	"/>
	<polygon style="fill:#ACC280;" points="803.4,126.6 798.7,122.1 802.2,119 804.7,117 806.9,115.1 814.8,115.2 814.7,126.6 	"/>
	<polygon style="fill:#ACC280;" points="816.1,128.9 816.1,115.4 816.1,115.2 827.1,115.2 827,128.9 	"/>
	<polygon style="fill:#ACC280;" points="797.8,134.8 797.8,122.8 802.8,128 814.7,128 814.7,134.8 	"/>
	<polygon style="fill:#ACC280;" points="828,128.8 828.1,115.2 839,115.1 838.9,128.8 	"/>
	<polygon style="fill:#ACC280;" points="797.8,144.2 797.8,136.2 816.1,136.2 816.1,130.1 832,130.1 832,144.2 	"/>
	<polygon style="fill:#ACC280;" points="797.8,154.8 797.8,145.3 809.6,145.3 809.6,154.8 	"/>
	<polygon style="fill:#ACC280;" points="712.1,133.7 712.1,128.6 733.6,115.4 737.2,115.4 737.2,133.6 	"/>
	<polygon style="fill:#ACC280;" points="712.1,140.2 712.1,134.3 737.2,134.3 737.2,140.2 	"/>
	<polygon style="fill:#ACC280;" points="738.2,136.9 738.1,115.4 746.2,115.4 746.2,136.9 	"/>
	<polygon style="fill:#ACC280;" points="747.2,137 747.1,115.5 755.2,115.5 755.2,137 	"/>
	<polygon style="fill:#ACC280;" points="756.1,137 756.1,115.5 764.2,115.5 764.2,137 	"/>
	<polygon style="fill:#ACC280;" points="712.2,152.8 712.2,146.9 737.2,146.8 737.2,152.8 	"/>
	<polygon style="fill:#ACC280;" points="712.2,159.1 712.2,153.4 737.2,153.4 737.2,159.1 	"/>
	<polygon style="fill:#ACC280;" points="798.1,172 797.8,155.9 809.5,155.9 809.5,172 	"/>
	<polygon style="fill:#ACC280;" points="810.4,172 810.4,145.4 819,145.4 818.9,172 	"/>
	<polygon style="fill:#ACC280;" points="819.8,172 819.9,145.4 831.9,145.4 831.8,171.9 	"/>
	<polygon style="fill:#ACC280;" points="850,128.7 839.9,128.7 840,115.2 850.1,115.2 	"/>
	<polygon style="fill:#ACC280;" points="862.4,128.9 850.9,128.8 850.9,115.2 862.5,115.2 	"/>
	<polygon style="fill:#ACC280;" points="863.4,126.6 863.5,116 863.5,115.2 870.7,115.2 870.6,126.6 	"/>
	<polygon style="fill:#ACC280;" points="876.4,126.6 871.4,126.6 871.5,115.2 881.1,115.2 881.1,122.5 876.4,122.5 	"/>
	<polygon style="fill:#ACC280;" points="881.8,122.5 881.9,115.2 893.5,115.2 895.7,117.8 892.7,122.4 	"/>
	<polygon style="fill:#ACC280;" points="886.2,129.7 877.1,128.4 877.1,123.3 891.4,123.3 888.9,127 	"/>
	<polygon style="fill:#ACC280;" points="878.4,137.3 863.2,130.1 863.8,127.7 876.2,127.7 876.2,129.2 885.5,130.5 	"/>
	<polygon style="fill:#ACC280;" points="873.4,146 855.2,139.1 833.2,138.3 833.1,130.1 860.6,130.1 878,138.2 	"/>
	<polygon style="fill:#ACC280;" points="866.8,157.6 850,151.7 833.2,150.9 832.9,139.2 855,140.1 873.1,146.9 867.1,157 	"/>
	<polygon style="fill:#ACC280;" points="863.2,167.1 833,160.7 833,152 849.9,152.8 866.7,158.7 	"/>
	<polygon style="fill:#ACC280;" points="833,172 833.1,161.9 846.2,164 846.2,167.4 849.4,168.4 849.4,171.6 	"/>
	<polygon style="fill:#ACC280;" points="850.2,171.9 850.2,168.1 847,166.8 847,164.6 862.9,167.9 861.8,171.9 	"/>
	<polygon style="fill:#ACC280;" points="756.7,91.3 756.7,83.9 764.9,83.9 764.9,91.3 	"/>
	<polygon style="fill:#ACC280;" points="765.6,91.4 765.6,83.3 756.8,83.3 756.6,69.5 772.8,69.5 772.9,91.3 	"/>
	<polygon style="fill:#ACC280;" points="786.2,91.9 782.6,88.6 782.5,69.5 792,69.5 792,91.9 	"/>
	<polygon style="fill:#ACC280;" points="778.7,96.1 773.8,91.5 773.8,69.5 781.4,69.5 781.6,89.1 784.9,91.8 782.9,95.9 	"/>
	<polygon style="fill:#ACC280;" points="793.2,91.9 793.2,69.5 803.2,69.5 803.2,91.9 	"/>
	<polygon style="fill:#ACC280;" points="804.5,91.9 804.5,69.5 826.4,69.6 826.5,74.9 826.4,91.9 	"/>
	<polygon style="fill:#ACC280;" points="827.6,92 827.6,69.6 854.8,69.7 854.7,92 	"/>
	<polygon style="fill:#ACC280;" points="855.5,91.9 855.7,69.6 867.2,69.6 867.2,92 	"/>
	<polygon style="fill:#ACC280;" points="868.2,92 868.2,85.2 879.1,85.2 879.1,92 	"/>
	<polygon style="fill:#ACC280;" points="879.9,92 879.9,84.7 868.1,84.7 868.2,69.5 894.7,69.6 894.4,89.8 890.7,92 	"/>
	<polygon style="fill:#ACC280;" points="895.6,87.7 895.8,69.7 907.6,69.7 907.4,77.6 	"/>
	<polygon style="fill:#ACC280;" points="977.9,105.4 917.2,105.3 917.5,96 929.2,76.9 929.2,70.5 978.5,70.4 	"/>
	<polygon style="fill:#ACC280;" points="904.8,136.5 896.9,130.3 903,124.7 909,128.9 918.9,128.9 918.8,136.5 	"/>
	<polygon style="fill:#ACC280;" points="909.4,127.8 903.8,124 917.2,106.6 977.7,106.6 977.4,127.8 	"/>
	<polygon style="fill:#ACC280;" points="899.6,145.3 885.8,145.3 886.6,141.4 891,137.3 899.6,140.3 	"/>
	<polygon style="fill:#ACC280;" points="882.2,161.9 884.1,154 900.7,154.1 900.6,161.8 	"/>
	<polygon style="fill:#ACC280;" points="901.4,161.9 901.5,152.9 884.6,152.9 885.6,146.1 900.7,146.1 900.8,141.1 905.4,137.4 
		919.1,137.5 918.8,161.8 	"/>
	<polygon style="fill:#ACC280;" points="918.6,183.5 879.7,174.7 882,162.8 918.8,162.7 	"/>
	<polygon style="fill:#ACC280;" points="712.2,165.6 712.2,159.9 737.4,159.9 737.4,165.6 	"/>
	<polygon style="fill:#ACC280;" points="712.4,172.1 712.4,166.4 737.4,166.4 737.4,172.1 	"/>
	<polygon style="fill:#ACC280;" points="738.2,172 738.1,150.6 746.2,150.6 746.4,172 	"/>
	<polygon style="fill:#ACC280;" points="747.2,172 747.1,150.6 755.2,150.6 755.4,172 	"/>
	<polyline style="fill:#ACC280;" points="764.1,137.7 764.1,154.3 764.2,172.1 756.2,172 756.2,138.2 	"/>
	<polygon style="fill:#ACC280;" points="765,125 765,115.5 777,115.5 777,125 	"/>
	<polygon style="fill:#ACC280;" points="777.7,125.1 777.7,115.6 789.6,115.6 789.6,125.1 	"/>
	<polygon style="fill:#ACC280;" points="765.1,131.8 765.1,126.1 789.7,126.1 789.7,131.8 	"/>
	<polygon style="fill:#ACC280;" points="765.2,138.2 765.2,132.5 789.5,132.5 789.5,138.2 	"/>
	<polygon style="fill:#ACC280;" points="765.1,145.4 765.1,138.7 789.6,138.7 789.6,145.4 	"/>
	<polygon style="fill:#ACC280;" points="765.1,152.6 765.1,145.9 789.6,145.9 789.6,152.6 	"/>
	<polygon style="fill:#ACC280;" points="765,172 764.9,153.4 774.5,153.4 774.5,172 	"/>
	<polygon style="fill:#ACC280;" points="775.7,161.1 775.6,153.4 789.6,153.4 789.6,161.1 	"/>
	<polygon style="fill:#ACC280;" points="775.6,172.1 775.6,162.1 789.7,162 789.7,172.1 	"/>
	<polygon style="fill:#ACC280;" points="917.1,197 877.2,187.3 879.6,175.5 918.2,184.2 	"/>
	<polyline style="fill:#ACC280;" points="754.9,149.7 738.2,149.6 738.2,137.7 755,137.9 	"/>
	<polygon style="fill:#66AA58;" points="698.9,236 698.8,224.7 707.8,224.7 707.8,236 	"/>
	<polygon style="fill:#66AA58;" points="707.9,236.8 708,249 698.9,249 698.8,236.8 	"/>
	<polygon style="fill:#66AA58;" points="707.5,194.4 707.6,205.5 698.7,205.5 698.6,188.8 702.5,188.8 	"/>
	<polygon style="fill:#66AA58;" points="707.6,206.7 707.7,217 698.7,217 698.6,206.7 	"/>
	<polygon style="fill:#66AA58;" points="743.7,190.2 743.8,197.3 731.2,197.3 731.2,190.3 	"/>
	<polygon style="fill:#66AA58;" points="757.1,197.2 744.6,197.3 744.5,190.2 757.1,190.3 	"/>
	<polygon style="fill:#66AA58;" points="769.6,191.1 769.6,197.2 758.1,197.2 758.1,190.3 768.7,190.3 	"/>
	<polygon style="fill:#66AA58;" points="723.2,197.3 723.4,211.7 714.7,211.7 714.6,194.4 719.6,190.3 730.5,190.3 730.5,197.3 	"/>
	<polygon style="fill:#66AA58;" points="724.5,211.6 724.4,198.4 769.5,198.3 769.5,211.5 	"/>
	<polygon style="fill:#66AA58;" points="744.6,212.7 744.7,228.1 714.9,228.2 714.8,222.1 714.8,219.2 714.7,212.8 	"/>
	<polygon style="fill:#66AA58;" points="723.7,229.1 723.9,254.2 715,250.8 714.9,229.2 	"/>
	<polygon style="fill:#66AA58;" points="769.7,212.7 769.7,219 745.6,219.1 745.6,212.8 	"/>
	<polygon style="fill:#66AA58;" points="745.7,227.1 745.7,220.2 769.7,220.1 769.7,227 	"/>
	<polygon style="fill:#66AA58;" points="723.7,285.7 723.6,271.7 732.5,271.6 732.6,285.6 	"/>
	<polygon style="fill:#66AA58;" points="733.5,285.6 733.4,271.6 744,271.6 744.1,285.6 	"/>
	
		<rect x="745.3" y="271.2" transform="matrix(4.486062e-03 1 -1 4.486062e-03 1020.1267 -474.8578)" style="fill:#66AA58;" width="6.5" height="7.4"/>
	<polygon style="fill:#66AA58;" points="723.8,298 723.7,286.6 732.5,286.5 744.1,286.5 744.1,293.3 736.2,297.9 	"/>
	<polygon style="fill:#66AA58;" points="760.2,271.6 760.2,293.2 744.8,293.3 744.8,279.1 753.2,279.2 753.2,271.6 	"/>
	<polygon style="fill:#66AA58;" points="761.1,293.2 761.1,271.5 771.1,271.5 771.2,293.1 	"/>
	<polygon style="fill:#66AA58;" points="723.8,299.1 736.4,299.1 736.6,317.3 723.9,317.3 	"/>
	<polygon style="fill:#66AA58;" points="737.2,298.3 744.6,294 771.2,293.9 771.2,317.1 737.5,317.2 	"/>
	<polygon style="fill:#66AA58;" points="805.2,316.9 780,317 772.4,317 772.4,311 772.7,271.5 779.9,271.4 805.2,271.2 	"/>
	<polygon style="fill:#64A351;" points="813.2,196.9 810,195.2 797.1,195.2 797.1,190.3 813.2,190.2 	"/>
	<polygon style="fill:#64A351;" points="813.2,198.1 813.2,202.7 797.1,202.7 797.1,196.1 809.5,196.1 	"/>
	<polygon style="fill:#64A351;" points="822,190.2 821.8,202.7 814.6,202.7 814.7,190.2 	"/>
	<polygon style="fill:#64A351;" points="831.1,190.2 831.1,202.7 822.8,202.7 822.9,190.2 	"/>
	<polygon style="fill:#64A351;" points="831.1,203.8 831.1,226.2 797.1,226.3 797.1,203.8 	"/>
	<polygon style="fill:#64A351;" points="824.2,227.6 824.2,235.5 797.1,235.6 797.1,227.7 	"/>
	<polygon style="fill:#64A351;" points="848.4,190.2 846.2,198.9 832.2,199 832.2,190.2 	"/>
	<polygon style="fill:#64A351;" points="861.4,198.9 847.1,198.9 849.2,191.1 862.1,192.9 	"/>
	<polygon style="fill:#64A351;" points="861.2,200 860.4,206.7 832.2,206.8 832.2,200 	"/>
	<polygon style="fill:#64A351;" points="859.8,211.7 859.8,215.4 832.1,215.4 832.2,207.5 860.2,207.4 	"/>
	<polygon style="fill:#66AA58;" points="892.2,201.9 892.2,206.6 874.1,206.6 876,199.7 	"/>
	<polygon style="fill:#66AA58;" points="892.2,207.7 892.1,218.3 870.8,218.4 873.8,207.7 	"/>
	<polygon style="fill:#66AA58;" points="918.9,206.4 918.8,218.3 893.1,218.3 893.2,202.1 915.2,205.9 915.1,205.8 	"/>
	<polygon style="fill:#64A351;" points="859.9,216.1 859.8,226.4 832.1,226.4 832.2,216.2 	"/>
	<polygon style="fill:#66AA58;" points="900.6,229.9 869.7,230 869.7,222.3 870.5,219.3 900.7,219.2 	"/>
	<polygon style="fill:#66AA58;" points="869.6,250.2 869.7,242.4 881.7,242.3 881.6,250.2 	"/>
	<polygon style="fill:#66AA58;" points="901.6,230.7 901.7,219.2 918.8,219.2 918.5,246.3 882.4,246.4 882.4,241.4 869.6,241.5 
		869.7,230.8 	"/>
	<polygon style="fill:#66AA58;" points="881.5,262 881.4,269.9 869.5,269.9 869.6,262.1 	"/>
	<polygon style="fill:#66AA58;" points="918.5,247.3 918.2,263.2 910.2,263.3 910.1,269.7 882.4,269.8 882.4,262.9 882.6,247.4 	"/>
	<polygon style="fill:#66AA58;" points="918.2,269.6 911,269.6 911.1,263.9 918.2,263.9 	"/>
	<polygon style="fill:#66AA58;" points="873.1,282.1 880.5,282 880.4,292.7 900,292.5 899.9,298.9 872.9,299.4 	"/>
	<polygon style="fill:#66AA58;" points="881.4,291.8 881.4,282 918.2,281.9 918,298.8 900.9,298.8 900.9,291.8 	"/>
	<polygon style="fill:#66AA58;" points="809.5,283.3 809.6,271.3 822.5,271.2 822.5,283.2 	"/>
	<polygon style="fill:#66AA58;" points="833.4,283 823.4,283.1 823.4,271.2 833.4,271.2 	"/>
	<polygon style="fill:#66AA58;" points="834.2,283 834.2,271.2 842.4,271.1 842.2,283 	"/>
	<polygon style="fill:#64A351;" points="839.6,316.6 839.7,310.1 849.9,310.1 849.9,316.5 	"/>
	<polygon style="fill:#66AA58;" points="843.2,271.1 859.2,271.1 859.6,316.5 850.8,316.5 850.9,309.2 838.8,309.3 838.7,316.6 
		806.5,316.8 806.5,291.5 823.4,291.4 823.4,284.2 843.2,284.1 	"/>
	<polygon style="fill:#66AA58;" points="872.8,315.1 872.9,300.2 886.5,300.1 886.2,315 	"/>
	<polygon style="fill:#66AA58;" points="887.2,300 893.7,300 893.6,315 887.2,315 	"/>
	<polygon style="fill:#66AA58;" points="894.5,315 894.6,299.9 900,299.9 899.8,315 	"/>
	<polygon style="fill:#66AA58;" points="900.7,315 900.9,299.8 907.6,299.8 907.4,314.9 	"/>
	<polygon style="fill:#66AA58;" points="908.2,314.9 908.4,299.8 918,299.8 917.8,314.9 	"/>
	<polygon style="fill:#66AA58;" points="928.4,299.7 928.2,314.8 918.6,314.9 918.8,299.8 	"/>
	<polygon style="fill:#66AA58;" points="938.6,299.7 938.4,314.8 928.8,314.8 929,299.7 	"/>
	<polygon style="fill:#64A351;" points="797.1,247.7 797.1,236.7 819.7,236.6 819.7,247.7 	"/>
	<polygon style="fill:#64A351;" points="797.1,254.5 797.1,248.9 808.1,248.9 808,254.5 	"/>
	<polygon style="fill:#64A351;" points="819.7,248.8 819.6,254.5 808.9,254.5 808.9,248.8 	"/>
	<polygon style="fill:#64A351;" points="825.4,235.5 825.4,227.5 859.8,227.4 859.7,235.4 	"/>
	<polygon style="fill:#64A351;" points="859.7,236.5 859.7,243.5 841.5,243.6 832.1,240.4 832.1,236.5 	"/>
	<polygon style="fill:#64A351;" points="820.6,254.5 820.7,236.6 830.9,236.6 830.9,241.3 834.2,242.3 834.2,254.4 	"/>
	<polygon style="fill:#64A351;" points="845.9,244.7 845.9,254.4 835.1,254.4 835.2,242.8 841.2,244.7 	"/>
	<polygon style="fill:#64A351;" points="859.6,254.3 846.7,254.4 846.8,244.7 859.7,244.6 	"/>
	<polygon style="fill:#66AA58;" points="725,254.9 724.8,229.1 744.8,229.1 744.8,245.4 735.6,245.4 735.7,254.9 	"/>
	<polygon style="fill:#66AA58;" points="744.8,246.2 744.9,254.8 736.4,254.9 736.4,246.2 	"/>
	<polygon style="fill:#66AA58;" points="769.7,228.2 769.7,235.9 745.8,236 745.7,228.2 	"/>
	<polygon style="fill:#66AA58;" points="769.7,237 769.8,248.1 745.8,248.2 745.8,237.1 	"/>
	<polygon style="fill:#66AA58;" points="757.9,249.4 757.9,254.8 745.9,254.8 745.9,249.4 	"/>
	<polygon style="fill:#66AA58;" points="769.7,249.2 769.8,254.7 758.6,254.7 758.5,249.2 	"/>
	<polygon style="fill:#66AA58;" points="780.6,258.9 780.2,258.9 779.9,258.8 779.7,258.7 779.6,258.5 779.5,258.4 779.5,253.9 
		779.6,253.8 779.7,253.8 779.8,253.8 781.7,253.8 782.6,253.8 783.6,253.9 784.5,254 785.5,254.1 786.4,254.4 787.5,254.7 
		788.6,255.1 789.4,255.3 789.8,255.5 790.4,255.6 790.6,255.7 790.8,255.9 790.8,255.9 790.8,258.3 790.7,258.4 790.6,258.6 
		790.4,258.7 790.2,258.8 790,258.8 789.6,258.9 	"/>
	<polygon style="fill:#A9CB9C;" points="707.7,218 707.9,223.9 698.6,223.9 698.8,218.1 	"/>
	<path style="fill:#585857;" d="M881,310.5c-0.3,0.4-0.5,0.7-0.7,1C880.5,311.2,880.7,310.9,881,310.5"/>
	<path style="fill:#555454;" d="M880.4,311.5L880.4,311.5L880.4,311.5z"/>
	<path style="fill:#515150;" d="M880.4,311.5L880.4,311.5L880.4,311.5z"/>
	<polygon style="fill:#4D4D4C;" points="880.4,311.5 880.4,311.5 880.2,311.5 	"/>
	<path style="fill:#484847;" d="M880.2,311.5L880.2,311.5L880.2,311.5z"/>
	<path style="fill:#434342;" d="M880.2,311.5L880.2,311.5L880.2,311.5z"/>
	<path style="fill:#3D3D3C;" d="M880.2,311.5L880.2,311.5L880.2,311.5z"/>
	<path style="fill:#343433;" d="M880.2,311.5L880.2,311.5L880.2,311.5z"/>
	<path style="fill:#757574;" d="M730.1,314C730.1,314,730.1,313.9,730.1,314C730.1,313.9,730.1,314,730.1,314"/>
	<path style="fill:#737372;" d="M730.2,313.9c0.2-0.2,0.3-0.4,0.5-0.5C730.5,313.5,730.2,313.7,730.2,313.9"/>
	<path style="fill:#717070;" d="M730.6,313.4L730.6,313.4c0.1-0.1,0.1-0.2,0.2-0.2C730.8,313.2,730.7,313.3,730.6,313.4"/>
	<path style="fill:#6F6F6E;" d="M730.8,313.1L730.8,313.1c0-0.1,0.1-0.1,0.1-0.2C730.9,313,730.9,313.1,730.8,313.1"/>
	<path style="fill:#6D6C6C;" d="M730.9,313l0.1-0.1C731,312.9,731,312.9,730.9,313"/>
	<path style="fill:#6B6A6A;" d="M731,312.9L731,312.9C731,312.8,731.1,312.8,731,312.9C731.1,312.8,731,312.8,731,312.9"/>
	<path style="fill:#686867;" d="M731.1,312.8L731.1,312.8L731.1,312.8z"/>
	<path style="fill:#666665;" d="M731.1,312.8L731.1,312.8L731.1,312.8z"/>
	<path style="fill:#636362;" d="M731.1,312.8L731.1,312.8L731.1,312.8z"/>
	<path style="fill:#616160;" d="M731.1,312.8L731.1,312.8L731.1,312.8z"/>
	<path style="fill:#5E5E5D;" d="M731.1,312.8L731.1,312.8L731.1,312.8z"/>
	<path style="fill:#5B5B5A;" d="M731.1,312.8L731.1,312.8L731.1,312.8z"/>
	<path style="fill:#585857;" d="M731.1,312.8L731.1,312.8L731.1,312.8z"/>
	<path style="fill:#555454;" d="M731.1,312.8L731.1,312.8L731.1,312.8z"/>
	<polygon style="fill:#515150;" points="731.1,312.8 731.1,312.8 731.1,312.7 	"/>
	<path style="fill:#4D4D4C;" d="M731.1,312.7L731.1,312.7L731.1,312.7z"/>
	<path style="fill:#484847;" d="M731.1,312.7L731.1,312.7L731.1,312.7z"/>
	<path style="fill:#434342;" d="M731.1,312.7L731.1,312.7L731.1,312.7z"/>
	<path style="fill:#3D3D3C;" d="M731.1,312.7L731.1,312.7L731.1,312.7z"/>
	<path style="fill:#343433;" d="M731.1,312.7L731.1,312.7L731.1,312.7z"/>
	<polygon style="fill:#343433;" points="736.7,273.9 736.7,273.9 736.7,274 	"/>
	<polygon style="fill:#ACC280;" points="707.8,106.4 676.2,67.6 733.7,69.2 733.9,99.9 	"/>
	<polygon style="fill:#ACC280;" points="611.5,121.9 611.4,114.8 618.2,79.3 636.2,67.5 675.2,67.6 707.2,106.8 696.2,112.3 
		696.4,121.9 	"/>
	<polygon style="fill:#ACC280;" points="734.8,99.8 734.6,69.2 748,69.2 748.1,96.2 	"/>
	<polygon style="fill:#ACC280;" points="612.1,140.4 611.8,122.9 696.7,122.9 696.7,140.4 	"/>
	<polygon style="fill:#ACC280;" points="612.2,167.4 611.9,141.8 696.6,141.7 696.9,167.3 	"/>
	<path style="fill:#998573;" d="M644.6,133.5L644.6,133.5L644.6,133.5z"/>
	<polygon style="fill:#ACC280;" points="927.2,78.5 908.5,78.1 908.2,70.1 928.7,70.6 928.6,76.8 	"/>
</g>
<g id="Layer_2">
	<line style="fill:none;stroke:#000000;stroke-width:2;stroke-miterlimit:10;" x1="708.4" y1="319.8" x2="923.4" y2="319.8"/>
	<line style="fill:none;stroke:#000000;stroke-width:2;stroke-miterlimit:10;" x1="709.2" y1="320.6" x2="709.2" y2="180.8"/>
	<line style="fill:none;stroke:#000000;stroke-width:2;stroke-miterlimit:10;" x1="865.8" y1="181.1" x2="693.8" y2="181.1"/>
	<line style="fill:none;stroke:#000000;stroke-width:2;stroke-miterlimit:10;" x1="868.8" y1="265" x2="686.6" y2="265"/>
	<line style="fill:none;stroke:#000000;stroke-width:2;stroke-miterlimit:10;" x1="781.7" y1="253.8" x2="781.6" y2="181.5"/>
	<line style="fill:none;stroke:#000000;stroke-width:2;stroke-miterlimit:10;" x1="911" y1="274" x2="864.7" y2="274"/>
	<line style="fill:none;stroke:#000000;stroke-width:2;stroke-miterlimit:10;" x1="864.8" y1="319.8" x2="864.7" y2="265"/>
	<line style="fill:none;stroke:#000000;stroke-width:2;stroke-miterlimit:10;" x1="864.7" y1="265.8" x2="864.8" y2="181.8"/>
	<line style="fill:none;stroke:#000000;stroke-width:2;stroke-miterlimit:10;" x1="772.4" y1="250.6" x2="793.9" y2="250.6"/>
	<line style="fill:none;stroke:#000000;stroke-width:2;stroke-miterlimit:10;" x1="793.9" y1="264.9" x2="793.9" y2="249.9"/>
	<line style="fill:none;stroke:#000000;stroke-width:2;stroke-miterlimit:10;" x1="772.4" y1="265.8" x2="772.4" y2="249.8"/>
	<line style="fill:none;stroke:#000000;stroke-width:2;stroke-miterlimit:10;" x1="793" y1="106.2" x2="793" y2="182.2"/>
	<line style="fill:none;stroke:#000000;stroke-width:2;stroke-miterlimit:10;" x1="701.1" y1="180.8" x2="701.1" y2="122.1"/>
	<line style="fill:none;stroke:#000000;stroke-width:2;stroke-miterlimit:10;" x1="701.1" y1="122.1" x2="731.2" y2="105.6"/>
	<line style="fill:none;stroke:#000000;stroke-width:2;stroke-miterlimit:10;" x1="731.9" y1="105.6" x2="905.4" y2="105.6"/>
	<path style="fill:none;stroke:#000000;stroke-width:3;stroke-miterlimit:10;" d="M864.4,183.2c5.4-15.5,12.2-28.6,16.6-36.2
		c3.8-6.7,7.7-12.7,16.8-28.3c3.4-5.9,4.6-10,6.5-13.4"/>
	<path style="fill:none;stroke:#000000;stroke-width:3;stroke-miterlimit:10;" d="M888.7,105.4c-0.3-0.9-0.5-3.2-0.5-3.7
		c0-0.8,0.1-1.4,0.1-1.7c0,0,0.1-0.7,0.3-1.4c0.4-1.5,7.4-10.7,15-8.2c3.5,1.1,7.1,4.7,6.4,7.5c-0.9,4-9.8,4.6-10.7,4.7
		c-3.9,0.3-8-2.4-9.9-3.1"/>
</g>
<line style="fill:none;stroke:#000000;stroke-width:2;stroke-miterlimit:10;" x1="750.8" y1="106.2" x2="750.8" y2="67.5"/>
</svg>
