<?xml version="1.0" encoding="utf-8"?>
<!-- Generator: Adobe Illustrator 19.1.0, SVG Export Plug-In . SVG Version: 6.00 Build 0)  -->
<svg version="1.1" id="svgroot" xmlns="http://www.w3.org/2000/svg" xmlns:xlink="http://www.w3.org/1999/xlink" x="0px" y="0px"
	 viewBox="261 -199.6 1133.9 1190.6" style="enable-background:new 261 -199.6 1133.9 1190.6;" xml:space="preserve">
<g id="Layer_0">
	<path style="fill:#D3D4D5;" d="M312.4,106.3l-1-56.3l62.1-41.2l232.1,0.4l36.6,0.1l32.2,0.1l0.8,6.8l-56.4,28.5l-0.9,74.9
		l-17.3-2.3l-0.3,28.4h17.2l0.9,66l-63.4-0.1l-0.1,44.3l-135,0.4l-0.4-44.3h-21.8l-0.2-23.4l-0.8-82.3H312.4 M475.6,148.2
		c-0.6,0.7-0.6,1.8-0.6,1.8c0,1.5,0.1,29,0.1,29.8s0.8,1.8,1.8,1.8s6.1,0,6.4,0c0.1,0.1,1.7,1.5,4.4,1.5c0.1,0,0.3,0,0.4,0
		c0.8,0,2.9-0.7,2.9-2.6c0-0.6-0.1-28.6-0.1-30.1c0-0.1,0.1-1.4-0.5-2.1c-0.5-0.6-1.4-0.6-1.7-0.6c-0.1,0-0.1,0-0.1,0l-11.3-0.1
		c0,0-0.1,0-0.2,0C476.9,147.6,476.1,147.6,475.6,148.2 M533.9,35.7v8.2l1.3,1.1h23.7l1.3-1.1l0.1-8.2l-1.3-1.1h-23.7L533.9,35.7
		 M476,129.1c0,1.7,0,12.3,0,12.9c0,0.1,0,1.5,0.7,2.1c0.5,0.4,1.7,0.5,2.3,0.5c0.2,0,0.3,0,0.3,0h8.5c0.1,0,1.2,0,1.9-0.7
		c0.7-0.7,0.6-1.9,0.6-2c0-0.6,0.1-12,0.1-13.2c0-1.2-1.7-1.4-1.8-1.4h-11C477.5,127.3,476,127.4,476,129.1 M486.8,35.6l-4.2,6.4
		l8,5l4.3-1.5l7.2-3.5l-4.2-6.4H486.8 M572.8,110.9l4.9-20.1l-1.4-0.4l-8.7,19.2L572.8,110.9 M600.3,34l-8,6.5l7.9,6.5l8-6.5
		L600.3,34 M563.4,35.7l-0.1,8.2h15.9l4-4.7l-5.9-3.4L563.4,35.7 M517.6,35.7l-6.4,3.8l3.5,4.4h16v-8.2H517.6 M565.6,144l3.9-16.7
		l-4.9-0.4L564,144H565.6 M570.4,123.6l1.4-7.5l-6.2-1.5l-1.4,7.5L570.4,123.6"/>
	<polygon style="fill:#D3D5D5;" points="368.6,212.1 368.4,188 400.3,187.9 400.5,212 	"/>
	<polygon style="fill:#D3D5D5;" points="312.8,124.1 312.4,104.7 402.5,104.6 402.6,123.9 	"/>
	<polygon style="fill:#AFAFAF;" points="399.5,264 399,211.7 423.1,211.6 423.4,255.1 471,254.9 471,245.7 480.6,245.6 480.6,254.8 
		558.1,254.4 558.4,209.3 617.9,209 617.6,237 638.6,236.9 638.3,262.6 	"/>
	<polygon style="fill:#AFAFAF;" points="441.6,9.1 441.6,-14.7 461.3,-14.6 461.4,9.1 	"/>
</g>
<g id="Layer_1">
	<polygon style="fill:#D3D4D5;" points="597.9,157.2 598.3,116.3 616,116.2 615.6,157.2 	"/>
	<polygon style="fill:#ACC280;" points="502.8,66 498.1,61.5 501.6,58.4 504.1,56.4 506.3,54.5 514.2,54.6 514.1,66 	"/>
	<polygon style="fill:#ACC280;" points="515.5,68.3 515.5,54.8 515.5,54.6 526.5,54.6 526.4,68.3 	"/>
	<polygon style="fill:#ACC280;" points="497.2,74.2 497.2,62.2 502.2,67.4 514.1,67.4 514.1,74.2 	"/>
	<polygon style="fill:#ACC280;" points="527.4,68.2 527.5,54.6 538.4,54.5 538.3,68.2 	"/>
	<polygon style="fill:#ACC280;" points="497.2,83.6 497.2,75.6 515.5,75.6 515.5,69.5 531.4,69.5 531.4,83.6 	"/>
	<polygon style="fill:#ACC280;" points="497.2,94.2 497.2,84.7 509,84.7 509,94.2 	"/>
	<polygon style="fill:#ACC280;" points="411.5,73.1 411.5,68 433,54.8 436.6,54.8 436.6,73 	"/>
	<polygon style="fill:#ACC280;" points="411.5,79.6 411.5,73.7 436.6,73.7 436.6,79.6 	"/>
	<polygon style="fill:#ACC280;" points="437.6,76.3 437.5,54.8 445.6,54.8 445.6,76.3 	"/>
	<polygon style="fill:#ACC280;" points="446.6,76.4 446.5,54.9 454.6,54.9 454.6,76.4 	"/>
	<polygon style="fill:#ACC280;" points="455.5,76.4 455.5,54.9 463.6,54.9 463.6,76.4 	"/>
	<polygon style="fill:#ACC280;" points="411.6,92.2 411.6,86.3 436.6,86.2 436.6,92.2 	"/>
	<polygon style="fill:#ACC280;" points="411.6,98.5 411.6,92.8 436.6,92.8 436.6,98.5 	"/>
	<polygon style="fill:#ACC280;" points="497.5,111.4 497.2,95.3 508.9,95.3 508.9,111.4 	"/>
	<polygon style="fill:#ACC280;" points="509.8,111.4 509.8,84.8 518.4,84.8 518.3,111.4 	"/>
	<polygon style="fill:#ACC280;" points="519.2,111.4 519.3,84.8 531.3,84.8 531.2,111.3 	"/>
	<polygon style="fill:#ACC280;" points="549.4,68.1 539.3,68.1 539.4,54.6 549.5,54.6 	"/>
	<polygon style="fill:#ACC280;" points="561.8,68.3 550.3,68.2 550.3,54.6 561.9,54.6 	"/>
	<polygon style="fill:#ACC280;" points="562.8,66 562.9,55.4 562.9,54.6 570.1,54.6 570,66 	"/>
	<polygon style="fill:#ACC280;" points="575.8,66 570.8,66 570.9,54.6 580.5,54.6 580.5,61.9 575.8,61.9 	"/>
	<polygon style="fill:#ACC280;" points="581.2,61.9 581.3,54.6 592.9,54.6 595.1,57.2 592.1,61.8 	"/>
	<polygon style="fill:#ACC280;" points="585.6,69.1 576.5,67.8 576.5,62.7 590.8,62.7 588.3,66.4 	"/>
	<polygon style="fill:#ACC280;" points="577.8,76.7 562.6,69.5 563.2,67.1 575.6,67.1 575.6,68.6 584.9,69.9 	"/>
	<polygon style="fill:#ACC280;" points="572.8,85.4 554.6,78.5 532.6,77.7 532.5,69.5 560,69.5 577.4,77.6 	"/>
	<polygon style="fill:#ACC280;" points="566.2,97 549.4,91.1 532.6,90.3 532.3,78.6 554.4,79.5 572.5,86.3 566.5,96.4 	"/>
	<polygon style="fill:#ACC280;" points="562.6,106.5 532.4,100.1 532.4,91.4 549.3,92.2 566.1,98.1 	"/>
	<polygon style="fill:#ACC280;" points="532.4,111.4 532.5,101.3 545.6,103.4 545.6,106.8 548.8,107.8 548.8,111 	"/>
	<polygon style="fill:#ACC280;" points="549.6,111.3 549.6,107.5 546.4,106.2 546.4,104 562.3,107.3 561.2,111.3 	"/>
	<polygon style="fill:#ACC280;" points="456.1,30.7 456.1,23.3 464.3,23.3 464.3,30.7 	"/>
	<polygon style="fill:#ACC280;" points="465,30.8 465,22.7 456.2,22.7 456,8.9 472.2,8.9 472.3,30.7 	"/>
	<polygon style="fill:#ACC280;" points="485.6,31.3 482,28 481.9,8.9 491.4,8.9 491.4,31.3 	"/>
	<polygon style="fill:#ACC280;" points="478.1,35.5 473.2,30.9 473.2,8.9 480.8,8.9 481,28.5 484.3,31.2 482.3,35.3 	"/>
	<polygon style="fill:#ACC280;" points="492.6,31.3 492.6,8.9 502.6,8.9 502.6,31.3 	"/>
	<polygon style="fill:#ACC280;" points="503.9,31.3 503.9,8.9 525.8,9 525.9,14.3 525.8,31.3 	"/>
	<polygon style="fill:#ACC280;" points="527,31.4 527,9 554.2,9.1 554.1,31.4 	"/>
	<polygon style="fill:#ACC280;" points="554.9,31.3 555.1,9 566.6,9 566.6,31.4 	"/>
	<polygon style="fill:#ACC280;" points="567.6,31.4 567.6,24.6 578.5,24.6 578.5,31.4 	"/>
	<polygon style="fill:#ACC280;" points="579.3,31.4 579.3,24.1 567.5,24.1 567.6,8.9 594.1,9 593.8,29.2 590.1,31.4 	"/>
	<polygon style="fill:#ACC280;" points="595,27.1 595.2,9.1 607,9.1 606.8,17 	"/>
	<polygon style="fill:#ACC280;" points="677.3,44.8 616.6,44.7 616.9,35.4 628.6,16.3 628.6,9.9 677.9,9.8 	"/>
	<polygon style="fill:#ACC280;" points="604.2,75.9 596.3,69.7 602.4,64.1 608.4,68.3 618.3,68.3 618.2,75.9 	"/>
	<polygon style="fill:#ACC280;" points="608.8,67.2 603.2,63.4 616.6,46 677.1,46 676.8,67.2 	"/>
	<polygon style="fill:#ACC280;" points="599,84.7 585.2,84.7 586,80.8 590.4,76.7 599,79.7 	"/>
	<polygon style="fill:#ACC280;" points="581.6,101.3 583.5,93.4 600.1,93.5 600,101.2 	"/>
	<polygon style="fill:#ACC280;" points="600.8,101.3 600.9,92.3 584,92.3 585,85.5 600.1,85.5 600.2,80.5 604.8,76.8 618.5,76.9 
		618.2,101.2 	"/>
	<polygon style="fill:#ACC280;" points="618,122.9 579.1,114.1 581.4,102.2 618.2,102.1 	"/>
	<polygon style="fill:#ACC280;" points="411.6,105 411.6,99.3 436.8,99.3 436.8,105 	"/>
	<polygon style="fill:#ACC280;" points="411.8,111.5 411.8,105.8 436.8,105.8 436.8,111.5 	"/>
	<polygon style="fill:#ACC280;" points="437.6,111.4 437.5,90 445.6,90 445.8,111.4 	"/>
	<polygon style="fill:#ACC280;" points="446.6,111.4 446.5,90 454.6,90 454.8,111.4 	"/>
	<polyline style="fill:#ACC280;" points="463.5,77.1 463.5,93.7 463.6,111.5 455.6,111.4 455.6,77.6 	"/>
	<polygon style="fill:#ACC280;" points="464.4,64.4 464.4,54.9 476.4,54.9 476.4,64.4 	"/>
	<polygon style="fill:#ACC280;" points="477.1,64.5 477.1,55 489,55 489,64.5 	"/>
	<polygon style="fill:#ACC280;" points="464.5,71.2 464.5,65.5 489.1,65.5 489.1,71.2 	"/>
	<polygon style="fill:#ACC280;" points="464.6,77.6 464.6,71.9 488.9,71.9 488.9,77.6 	"/>
	<polygon style="fill:#ACC280;" points="464.5,84.8 464.5,78.1 489,78.1 489,84.8 	"/>
	<polygon style="fill:#ACC280;" points="464.5,92 464.5,85.3 489,85.3 489,92 	"/>
	<polygon style="fill:#ACC280;" points="464.4,111.4 464.3,92.8 473.9,92.8 473.9,111.4 	"/>
	<polygon style="fill:#ACC280;" points="475.1,100.5 475,92.8 489,92.8 489,100.5 	"/>
	<polygon style="fill:#ACC280;" points="475,111.5 475,101.5 489.1,101.4 489.1,111.5 	"/>
	<polygon style="fill:#ACC280;" points="616.5,136.4 576.6,126.7 579,114.9 617.6,123.6 	"/>
	<polyline style="fill:#ACC280;" points="454.3,89.1 437.6,89 437.6,77.1 454.4,77.3 	"/>
	<polygon style="fill:#66AA58;" points="398.3,175.4 398.2,164.1 407.2,164.1 407.2,175.4 	"/>
	<polygon style="fill:#66AA58;" points="407.3,176.2 407.4,188.4 398.3,188.4 398.2,176.2 	"/>
	<polygon style="fill:#66AA58;" points="406.9,133.8 407,144.9 398.1,144.9 398,128.2 401.9,128.2 	"/>
	<polygon style="fill:#66AA58;" points="407,146.1 407.1,156.4 398.1,156.4 398,146.1 	"/>
	<polygon style="fill:#66AA58;" points="443.1,129.6 443.2,136.7 430.6,136.7 430.6,129.7 	"/>
	<polygon style="fill:#66AA58;" points="456.5,136.6 444,136.7 443.9,129.6 456.5,129.7 	"/>
	<polygon style="fill:#66AA58;" points="469,130.5 469,136.6 457.5,136.6 457.5,129.7 468.1,129.7 	"/>
	<polygon style="fill:#66AA58;" points="422.6,136.7 422.8,151.1 414.1,151.1 414,133.8 419,129.7 429.9,129.7 429.9,136.7 	"/>
	<polygon style="fill:#66AA58;" points="423.9,151 423.8,137.8 468.9,137.7 468.9,150.9 	"/>
	<polygon style="fill:#66AA58;" points="444,152.1 444.1,167.5 414.3,167.6 414.2,161.5 414.2,158.6 414.1,152.2 	"/>
	<polygon style="fill:#66AA58;" points="423.1,168.5 423.3,193.6 414.4,190.2 414.3,168.6 	"/>
	<polygon style="fill:#66AA58;" points="469.1,152.1 469.1,158.4 445,158.5 445,152.2 	"/>
	<polygon style="fill:#66AA58;" points="445.1,166.5 445.1,159.6 469.1,159.5 469.1,166.4 	"/>
	<polygon style="fill:#66AA58;" points="423.1,225.1 423,211.1 431.9,211 432,225 	"/>
	<polygon style="fill:#66AA58;" points="432.9,225 432.8,211 443.4,211 443.5,225 	"/>
	
		<rect x="444.6" y="210.7" transform="matrix(-4.485927e-03 -1 1 -4.485927e-03 235.5284 663.2233)" style="fill:#66AA58;" width="6.5" height="7.4"/>
	<polygon style="fill:#66AA58;" points="423.2,237.4 423.1,226 431.9,225.9 443.5,225.9 443.5,232.7 435.6,237.3 	"/>
	<polygon style="fill:#66AA58;" points="459.6,211 459.6,232.6 444.2,232.7 444.2,218.5 452.6,218.6 452.6,211 	"/>
	<polygon style="fill:#66AA58;" points="460.5,232.6 460.5,210.9 470.5,210.9 470.6,232.5 	"/>
	<polygon style="fill:#66AA58;" points="423.2,238.5 435.8,238.5 436,256.7 423.3,256.7 	"/>
	<polygon style="fill:#66AA58;" points="436.6,237.7 444,233.4 470.6,233.3 470.6,256.5 436.9,256.6 	"/>
	<polygon style="fill:#66AA58;" points="504.6,256.3 479.4,256.4 471.8,256.4 471.8,250.4 472.1,210.9 479.3,210.8 504.6,210.6 	"/>
	<polygon style="fill:#64A351;" points="512.6,136.3 509.4,134.6 496.5,134.6 496.5,129.7 512.6,129.6 	"/>
	<polygon style="fill:#64A351;" points="512.6,137.5 512.6,142.1 496.5,142.1 496.5,135.5 508.9,135.5 	"/>
	<polygon style="fill:#64A351;" points="521.4,129.6 521.2,142.1 514,142.1 514.1,129.6 	"/>
	<polygon style="fill:#64A351;" points="530.5,129.6 530.5,142.1 522.2,142.1 522.3,129.6 	"/>
	<polygon style="fill:#64A351;" points="530.5,143.2 530.5,165.6 496.5,165.7 496.5,143.2 	"/>
	<polygon style="fill:#64A351;" points="523.6,167 523.6,174.9 496.5,175 496.5,167.1 	"/>
	<polygon style="fill:#64A351;" points="547.8,129.6 545.6,138.3 531.6,138.4 531.6,129.6 	"/>
	<polygon style="fill:#64A351;" points="560.8,138.3 546.5,138.3 548.6,130.5 561.5,132.3 	"/>
	<polygon style="fill:#64A351;" points="560.6,139.4 559.8,146.1 531.6,146.2 531.6,139.4 	"/>
	<polygon style="fill:#64A351;" points="559.2,151.1 559.2,154.8 531.5,154.8 531.6,146.9 559.6,146.8 	"/>
	<polygon style="fill:#66AA58;" points="591.6,141.3 591.6,146 573.5,146 575.4,139.1 	"/>
	<polygon style="fill:#66AA58;" points="591.6,147.1 591.5,157.7 570.2,157.8 573.2,147.1 	"/>
	<polygon style="fill:#66AA58;" points="618.3,145.8 618.2,157.7 592.5,157.7 592.6,141.5 614.6,145.3 614.5,145.2 	"/>
	<polygon style="fill:#64A351;" points="559.3,155.5 559.2,165.8 531.5,165.8 531.6,155.6 	"/>
	<polygon style="fill:#66AA58;" points="600,169.3 569.1,169.4 569.1,161.7 569.9,158.7 600.1,158.6 	"/>
	<polygon style="fill:#66AA58;" points="569,189.6 569.1,181.8 581.1,181.7 581,189.6 	"/>
	<polygon style="fill:#66AA58;" points="601,170.1 601.1,158.6 618.2,158.6 617.9,185.7 581.8,185.8 581.8,180.8 569,180.9 
		569.1,170.2 	"/>
	<polygon style="fill:#66AA58;" points="580.9,201.4 580.8,209.3 568.9,209.3 569,201.5 	"/>
	<polygon style="fill:#66AA58;" points="617.9,186.7 617.6,202.6 609.6,202.7 609.5,209.1 581.8,209.2 581.8,202.3 582,186.8 	"/>
	<polygon style="fill:#66AA58;" points="617.6,209 610.4,209 610.5,203.3 617.6,203.3 	"/>
	<polygon style="fill:#66AA58;" points="572.5,221.5 579.9,221.4 579.8,232.1 599.4,231.9 599.3,238.3 572.3,238.8 	"/>
	<polygon style="fill:#66AA58;" points="580.8,231.2 580.8,221.4 617.6,221.3 617.4,238.2 600.3,238.2 600.3,231.2 	"/>
	<polygon style="fill:#66AA58;" points="508.9,222.7 509,210.7 521.9,210.6 521.9,222.6 	"/>
	<polygon style="fill:#66AA58;" points="532.8,222.4 522.8,222.5 522.8,210.6 532.8,210.6 	"/>
	<polygon style="fill:#66AA58;" points="533.6,222.4 533.6,210.6 541.8,210.5 541.6,222.4 	"/>
	<polygon style="fill:#64A351;" points="539,256 539.1,249.5 549.3,249.5 549.3,255.9 	"/>
	<polygon style="fill:#66AA58;" points="542.6,210.5 558.6,210.5 559,255.9 550.2,255.9 550.3,248.6 538.2,248.7 538.1,256 
		505.9,256.2 505.9,230.9 522.8,230.8 522.8,223.6 542.6,223.5 	"/>
	<polygon style="fill:#66AA58;" points="572.2,254.5 572.3,239.6 585.9,239.5 585.6,254.4 	"/>
	<polygon style="fill:#66AA58;" points="586.6,239.4 593.1,239.4 593,254.4 586.6,254.4 	"/>
	<polygon style="fill:#66AA58;" points="593.9,254.4 594,239.3 599.4,239.3 599.2,254.4 	"/>
	<polygon style="fill:#66AA58;" points="600.1,254.4 600.3,239.2 607,239.2 606.8,254.3 	"/>
	<polygon style="fill:#66AA58;" points="607.6,254.3 607.8,239.2 617.4,239.2 617.2,254.3 	"/>
	<polygon style="fill:#66AA58;" points="627.8,239.1 627.6,254.2 618,254.3 618.2,239.2 	"/>
	<polygon style="fill:#66AA58;" points="638,239.1 637.8,254.2 628.2,254.2 628.4,239.1 	"/>
	<polygon style="fill:#64A351;" points="496.5,187.1 496.5,176.1 519.1,176 519.1,187.1 	"/>
	<polygon style="fill:#64A351;" points="496.5,193.9 496.5,188.3 507.5,188.3 507.4,193.9 	"/>
	<polygon style="fill:#64A351;" points="519.1,188.2 519,193.9 508.3,193.9 508.3,188.2 	"/>
	<polygon style="fill:#64A351;" points="524.8,174.9 524.8,166.9 559.2,166.8 559.1,174.8 	"/>
	<polygon style="fill:#64A351;" points="559.1,175.9 559.1,182.9 540.9,183 531.5,179.8 531.5,175.9 	"/>
	<polygon style="fill:#64A351;" points="520,193.9 520.1,176 530.3,176 530.3,180.7 533.6,181.7 533.6,193.8 	"/>
	<polygon style="fill:#64A351;" points="545.3,184.1 545.3,193.8 534.5,193.8 534.6,182.2 540.6,184.1 	"/>
	<polygon style="fill:#64A351;" points="559,193.7 546.1,193.8 546.2,184.1 559.1,184 	"/>
	<polygon style="fill:#66AA58;" points="424.4,194.3 424.2,168.5 444.2,168.5 444.2,184.8 435,184.8 435.1,194.3 	"/>
	<polygon style="fill:#66AA58;" points="444.2,185.6 444.3,194.2 435.8,194.3 435.8,185.6 	"/>
	<polygon style="fill:#66AA58;" points="469.1,167.6 469.1,175.3 445.2,175.4 445.1,167.6 	"/>
	<polygon style="fill:#66AA58;" points="469.1,176.4 469.2,187.5 445.2,187.6 445.2,176.5 	"/>
	<polygon style="fill:#66AA58;" points="457.3,188.8 457.3,194.2 445.3,194.2 445.3,188.8 	"/>
	<polygon style="fill:#66AA58;" points="469.1,188.6 469.2,194.1 458,194.1 457.9,188.6 	"/>
	<polygon style="fill:#66AA58;" points="480,198.3 479.6,198.3 479.3,198.2 479.1,198.1 479,197.9 478.9,197.8 478.9,193.3 
		479,193.2 479.1,193.2 479.2,193.2 481.1,193.2 482,193.2 483,193.3 483.9,193.4 484.9,193.5 485.8,193.8 486.9,194.1 488,194.5 
		488.8,194.7 489.2,194.9 489.8,195 490,195.1 490.2,195.3 490.2,195.3 490.2,197.7 490.1,197.8 490,198 489.8,198.1 489.6,198.2 
		489.4,198.2 489,198.3 	"/>
	<polygon style="fill:#A9CB9C;" points="407.1,157.4 407.3,163.3 398,163.3 398.2,157.5 	"/>
	<path style="fill:#585857;" d="M580.4,249.9c-0.3,0.4-0.5,0.7-0.7,1C579.9,250.6,580.1,250.3,580.4,249.9"/>
	<path style="fill:#555454;" d="M579.8,250.9L579.8,250.9L579.8,250.9z"/>
	<path style="fill:#515150;" d="M579.8,250.9L579.8,250.9L579.8,250.9z"/>
	<polygon style="fill:#4D4D4C;" points="579.8,250.9 579.8,250.9 579.6,250.9 	"/>
	<path style="fill:#484847;" d="M579.6,250.9L579.6,250.9L579.6,250.9z"/>
	<path style="fill:#434342;" d="M579.6,250.9L579.6,250.9L579.6,250.9z"/>
	<path style="fill:#3D3D3C;" d="M579.6,250.9L579.6,250.9L579.6,250.9z"/>
	<path style="fill:#343433;" d="M579.6,250.9L579.6,250.9L579.6,250.9z"/>
	<path style="fill:#757574;" d="M429.5,253.4C429.5,253.4,429.5,253.3,429.5,253.4C429.5,253.3,429.5,253.4,429.5,253.4"/>
	<path style="fill:#737372;" d="M429.6,253.3c0.2-0.2,0.3-0.4,0.5-0.5C429.9,252.9,429.6,253.1,429.6,253.3"/>
	<path style="fill:#717070;" d="M430,252.8L430,252.8c0.1-0.1,0.1-0.2,0.2-0.2C430.2,252.6,430.1,252.7,430,252.8"/>
	<path style="fill:#6F6F6E;" d="M430.2,252.5L430.2,252.5c0-0.1,0.1-0.1,0.1-0.2C430.3,252.4,430.3,252.5,430.2,252.5"/>
	<path style="fill:#6D6C6C;" d="M430.3,252.4l0.1-0.1C430.4,252.3,430.4,252.3,430.3,252.4"/>
	<path style="fill:#6B6A6A;" d="M430.4,252.3L430.4,252.3C430.4,252.2,430.5,252.2,430.4,252.3C430.5,252.2,430.4,252.2,430.4,252.3
		"/>
	<path style="fill:#686867;" d="M430.5,252.2L430.5,252.2L430.5,252.2z"/>
	<path style="fill:#666665;" d="M430.5,252.2L430.5,252.2L430.5,252.2z"/>
	<path style="fill:#636362;" d="M430.5,252.2L430.5,252.2L430.5,252.2z"/>
	<path style="fill:#616160;" d="M430.5,252.2L430.5,252.2L430.5,252.2z"/>
	<path style="fill:#5E5E5D;" d="M430.5,252.2L430.5,252.2L430.5,252.2z"/>
	<path style="fill:#5B5B5A;" d="M430.5,252.2L430.5,252.2L430.5,252.2z"/>
	<path style="fill:#585857;" d="M430.5,252.2L430.5,252.2L430.5,252.2z"/>
	<path style="fill:#555454;" d="M430.5,252.2L430.5,252.2L430.5,252.2z"/>
	<polygon style="fill:#515150;" points="430.5,252.2 430.5,252.2 430.5,252.1 	"/>
	<path style="fill:#4D4D4C;" d="M430.5,252.1L430.5,252.1L430.5,252.1z"/>
	<path style="fill:#484847;" d="M430.5,252.1L430.5,252.1L430.5,252.1z"/>
	<path style="fill:#434342;" d="M430.5,252.1L430.5,252.1L430.5,252.1z"/>
	<path style="fill:#3D3D3C;" d="M430.5,252.1L430.5,252.1L430.5,252.1z"/>
	<path style="fill:#343433;" d="M430.5,252.1L430.5,252.1L430.5,252.1z"/>
	<polygon style="fill:#343433;" points="436.1,213.3 436.1,213.3 436.1,213.4 	"/>
	<polygon style="fill:#ACC280;" points="407.2,45.8 375.6,7 433.1,8.6 433.3,39.3 	"/>
	<polygon style="fill:#ACC280;" points="310.9,61.3 310.8,54.2 317.6,18.7 335.6,6.9 374.6,7 406.6,46.2 395.6,51.7 395.8,61.3 	"/>
	<polygon style="fill:#ACC280;" points="434.2,39.2 434,8.6 447.4,8.6 447.5,35.6 	"/>
	<polygon style="fill:#ACC280;" points="311.5,79.8 311.2,62.3 396.1,62.3 396.1,79.8 	"/>
	<polygon style="fill:#ACC280;" points="311.6,106.8 311.3,81.2 396,81.1 396.3,106.7 	"/>
	<path style="fill:#998573;" d="M344,72.9L344,72.9L344,72.9z"/>
	<polygon style="fill:#ACC280;" points="626.6,17.9 607.9,17.5 607.6,9.5 628.1,10 628,16.2 	"/>
</g>
<g id="Layer_2">
	<line style="fill:none;stroke:#000000;stroke-width:2;stroke-miterlimit:10;" x1="407.8" y1="259.2" x2="622.8" y2="259.2"/>
	<line style="fill:none;stroke:#000000;stroke-width:2;stroke-miterlimit:10;" x1="408.6" y1="260" x2="408.6" y2="120.2"/>
	<line style="fill:none;stroke:#000000;stroke-width:2;stroke-miterlimit:10;" x1="565.2" y1="120.5" x2="393.2" y2="120.5"/>
	<line style="fill:none;stroke:#000000;stroke-width:2;stroke-miterlimit:10;" x1="568.2" y1="204.4" x2="386" y2="204.4"/>
	<line style="fill:none;stroke:#000000;stroke-width:2;stroke-miterlimit:10;" x1="481.1" y1="193.2" x2="481" y2="120.9"/>
	<line style="fill:none;stroke:#000000;stroke-width:2;stroke-miterlimit:10;" x1="610.4" y1="213.4" x2="564.1" y2="213.4"/>
	<line style="fill:none;stroke:#000000;stroke-width:2;stroke-miterlimit:10;" x1="564.2" y1="259.2" x2="564.1" y2="204.4"/>
	<line style="fill:none;stroke:#000000;stroke-width:2;stroke-miterlimit:10;" x1="564.1" y1="205.2" x2="564.2" y2="121.2"/>
	<line style="fill:none;stroke:#000000;stroke-width:2;stroke-miterlimit:10;" x1="471.8" y1="190" x2="493.3" y2="190"/>
	<line style="fill:none;stroke:#000000;stroke-width:2;stroke-miterlimit:10;" x1="493.3" y1="204.3" x2="493.3" y2="189.3"/>
	<line style="fill:none;stroke:#000000;stroke-width:2;stroke-miterlimit:10;" x1="471.8" y1="205.2" x2="471.8" y2="189.2"/>
	<line style="fill:none;stroke:#000000;stroke-width:2;stroke-miterlimit:10;" x1="492.4" y1="45.6" x2="492.4" y2="121.6"/>
	<line style="fill:none;stroke:#000000;stroke-width:2;stroke-miterlimit:10;" x1="400.5" y1="120.2" x2="400.5" y2="61.5"/>
	<line style="fill:none;stroke:#000000;stroke-width:2;stroke-miterlimit:10;" x1="399.6" y1="62.5" x2="432.3" y2="44.9"/>
	<line style="fill:none;stroke:#000000;stroke-width:2;stroke-miterlimit:10;" x1="431.3" y1="45" x2="604.8" y2="45"/>
	<path style="fill:none;stroke:#000000;stroke-width:3;stroke-miterlimit:10;" d="M563.8,122.6c5.4-15.5,12.2-28.6,16.6-36.2
		c3.8-6.7,7.7-12.7,16.8-28.3c3.4-5.9,4.6-10,6.5-13.4"/>
	<path style="fill:none;stroke:#000000;stroke-width:3;stroke-miterlimit:10;" d="M588.1,44.8c-0.3-0.9-0.5-3.2-0.5-3.7
		c0-0.8,0.1-1.4,0.1-1.7c0,0,0.1-0.7,0.3-1.4c0.4-1.5,7.4-10.7,15-8.2c3.5,1.1,7.1,4.7,6.4,7.5c-0.9,4-9.8,4.6-10.7,4.7
		c-3.9,0.3-8-2.4-9.9-3.1"/>
	<line style="fill:none;stroke:#000000;stroke-width:2;stroke-miterlimit:10;" x1="450.2" y1="45.6" x2="450.2" y2="6.9"/>
</g>
</svg>
