<?xml version="1.0" encoding="utf-8"?>
<!-- Generator: Adobe Illustrator 19.1.0, SVG Export Plug-In . SVG Version: 6.00 Build 0)  -->
<svg version="1.1" id="svgroot" xmlns="http://www.w3.org/2000/svg" xmlns:xlink="http://www.w3.org/1999/xlink" x="0px" y="0px"
	 viewBox="261 -199.6 1133.9 1190.6" style="enable-background:new 261 -199.6 1133.9 1190.6;" xml:space="preserve">
<g id="Layer_0">
	<polygon style="fill:#D3D5D5;" points="281.6,128.9 281.4,103.5 314.1,103.6 314.3,129.1 	"/>
	<path style="fill:#D2D3D4;" d="M329,125.2l-22.2-0.1l-0.2-40.4l30.9,0.1l3.5,2.9h4.8l-2.4,3.8l17.4,13.6h7.7V88h4.8v17.1l38.2,0.2
		l8.4-13.3l-2.5-3.8h4.7l9.2-7.7h3.2l5.7,5.1l16,0.1l-0.3,36.1l-22.5-0.1l9.4-14.6l-12-15l-10.2,15.3l9.4,14.4h-18.4l-78-0.2
		L329,125.2z M315.5,93.5l0.1,12.6l9.4,0.1l4.5,3.7l4.6-3.8h5.9l5.5-4.6l-13.1-7.9L315.5,93.5"/>
</g>
<g id="Layer_1">
	<g>
		<polygon style="fill:#7AB0E0;" points="306.9,85.3 306.6,59.7 461.7,60.7 461.5,86.3 440.3,86.3 434.5,81.1 431.5,81.1 
			422.3,88.8 341.2,88.3 337.7,85.4 312.5,85.3 312.6,85.3 		"/>
		<polygon style="fill:#7AB0E0;" points="461.2,119.9 450.6,119.8 450.8,88.6 461.5,88.6 		"/>
		<polygon style="fill:#7AB0E0;" points="327.5,164 307.3,163.9 307,124.3 327.4,124.4 		"/>
		<polygon style="fill:#7AB0E0;" points="339.7,120.8 339.8,164 328.4,164 328.4,124.3 333.1,120.8 		"/>
		<polygon style="fill:#7AB0E0;" points="352.3,120.8 352.3,164.1 340.8,164.1 340.7,120.8 		"/>
		<polygon style="fill:#7AB0E0;" points="365.3,164.2 353.4,164.1 353.3,120.8 365.2,120.9 		"/>
		<polygon style="fill:#7AB0E0;" points="379.9,164.2 366.3,164.1 366.2,120.9 380,120.9 		"/>
		<polygon style="fill:#7AB0E0;" points="392.6,164.2 380.9,164.2 381,120.9 392.7,120.9 		"/>
		<polygon style="fill:#7AB0E0;" points="405.4,121 405.3,164.2 393.5,164.2 393.6,120.9 		"/>
		<polygon style="fill:#7AB0E0;" points="461.2,121.2 460.8,164.6 406.2,164.4 406.3,121 		"/>
		<polyline style="fill:#7AB0E0;" points="312.4,86.8 312.8,106 307.1,106 307,86.5 		"/>
	</g>
</g>
<g id="Layer_2">
	<line style="fill:none;stroke:#000000;stroke-width:3;stroke-miterlimit:10;" x1="339.1" y1="91.8" x2="331.9" y2="101.3"/>
	<line style="fill:none;stroke:#000000;stroke-width:3;stroke-miterlimit:10;" x1="346.5" y1="100.3" x2="336.8" y2="92.5"/>
	<line style="fill:none;stroke:#000000;stroke-width:2;stroke-miterlimit:10;" x1="346.5" y1="115.4" x2="346.5" y2="99.4"/>
	<line style="fill:none;stroke:#000000;stroke-width:3;stroke-miterlimit:10;" x1="424.9" y1="93.4" x2="447.1" y2="93.4"/>
	<line style="fill:none;stroke:#000000;stroke-width:3;stroke-miterlimit:10;" x1="410.1" y1="115" x2="425.9" y2="93.4"/>
	<line style="fill:none;stroke:#000000;stroke-width:3;stroke-miterlimit:10;" x1="333.6" y1="114.4" x2="411.1" y2="114.4"/>
	<line style="fill:none;stroke:#000000;stroke-width:3;stroke-miterlimit:10;" x1="319.1" y1="120.9" x2="334.6" y2="114"/>
</g>
</svg>
